<mxfile host="app.diagrams.net" modified="2022-06-05T20:16:09.242Z" agent="5.0 (Windows)" etag="iV3SnpPgL3xJos3NaS8J" version="19.0.0" type="github">
  <diagram id="HXFEhjrMLbCV9gAbWQhC" name="Page-1">
    <mxGraphModel dx="1320" dy="627" grid="0" gridSize="10" guides="1" tooltips="1" connect="1" arrows="1" fold="1" page="1" pageScale="1" pageWidth="827" pageHeight="1169" math="0" shadow="0">
      <root>
        <mxCell id="0" />
        <mxCell id="1" parent="0" />
        <mxCell id="BGpOXGxUT94xlGYrzpRG-1" value="User" style="swimlane;fontStyle=1;align=center;verticalAlign=top;childLayout=stackLayout;horizontal=1;startSize=26;horizontalStack=0;resizeParent=1;resizeParentMax=0;resizeLast=0;collapsible=1;marginBottom=0;strokeWidth=1;spacingTop=0;fontSize=12;strokeColor=#6c8ebf;fillColor=#dae8fc;" parent="1" vertex="1">
          <mxGeometry x="655.67" y="36" width="160" height="280" as="geometry" />
        </mxCell>
        <mxCell id="BGpOXGxUT94xlGYrzpRG-2" value="- userID : String&#xa;- firstName : String&#xa;- lastName : String&#xa;- age : int&#xa;- sex : String&#xa;- email : String&#xa;- address : String&#xa;- role : String&#xa;- phoneNumber : String&#xa;- username : String&#xa;- password : String&#xa;- department : String&#xa;- specialization : String&#xa;" style="text;strokeColor=#6C8EBF;fillColor=none;align=left;verticalAlign=top;spacingLeft=4;spacingRight=4;overflow=hidden;rotatable=0;points=[[0,0.5],[1,0.5]];portConstraint=eastwest;strokeWidth=1;spacingTop=0;fontSize=12;" parent="BGpOXGxUT94xlGYrzpRG-1" vertex="1">
          <mxGeometry y="26" width="160" height="194" as="geometry" />
        </mxCell>
        <mxCell id="BGpOXGxUT94xlGYrzpRG-3" value="+ login() : void&#xa;+ getter() : getType&#xa;+ setter() : void" style="text;strokeColor=#6C8EBF;fillColor=none;align=left;verticalAlign=top;spacingLeft=4;spacingRight=4;overflow=hidden;rotatable=0;points=[[0,0.5],[1,0.5]];portConstraint=eastwest;strokeWidth=1;spacingTop=0;fontSize=12;" parent="BGpOXGxUT94xlGYrzpRG-1" vertex="1">
          <mxGeometry y="220" width="160" height="60" as="geometry" />
        </mxCell>
        <mxCell id="BGpOXGxUT94xlGYrzpRG-4" value="Result" style="swimlane;fontStyle=1;align=center;verticalAlign=top;childLayout=stackLayout;horizontal=1;startSize=26;horizontalStack=0;resizeParent=1;resizeParentMax=0;resizeLast=0;collapsible=1;marginBottom=0;strokeWidth=1;spacingTop=0;fontSize=12;strokeColor=#6c8ebf;fillColor=#dae8fc;" parent="1" vertex="1">
          <mxGeometry x="10" y="851" width="134" height="174" as="geometry" />
        </mxCell>
        <mxCell id="BGpOXGxUT94xlGYrzpRG-5" value="- testType : String&#xa;- finding : String&#xa;- senderName : String&#xa;- date : Date&#xa;- user : User" style="text;strokeColor=#6C8EBF;fillColor=none;align=left;verticalAlign=top;spacingLeft=4;spacingRight=4;overflow=hidden;rotatable=0;points=[[0,0.5],[1,0.5]];portConstraint=eastwest;strokeWidth=1;spacingTop=0;fontSize=12;" parent="BGpOXGxUT94xlGYrzpRG-4" vertex="1">
          <mxGeometry y="26" width="134" height="101" as="geometry" />
        </mxCell>
        <mxCell id="BGpOXGxUT94xlGYrzpRG-6" value="+ getter() : String&#xa;+ setter() : void" style="text;strokeColor=#6C8EBF;fillColor=none;align=left;verticalAlign=top;spacingLeft=4;spacingRight=4;overflow=hidden;rotatable=0;points=[[0,0.5],[1,0.5]];portConstraint=eastwest;strokeWidth=1;spacingTop=0;fontSize=12;" parent="BGpOXGxUT94xlGYrzpRG-4" vertex="1">
          <mxGeometry y="127" width="134" height="47" as="geometry" />
        </mxCell>
        <mxCell id="BGpOXGxUT94xlGYrzpRG-7" value="Request" style="swimlane;fontStyle=1;align=center;verticalAlign=top;childLayout=stackLayout;horizontal=1;startSize=26;horizontalStack=0;resizeParent=1;resizeParentMax=0;resizeLast=0;collapsible=1;marginBottom=0;strokeWidth=1;spacingTop=0;fontSize=12;strokeColor=#6c8ebf;fillColor=#dae8fc;" parent="1" vertex="1">
          <mxGeometry x="163" y="851" width="133" height="174" as="geometry" />
        </mxCell>
        <mxCell id="BGpOXGxUT94xlGYrzpRG-8" value="- requestType : String&#xa;- senderName : String&#xa;- requestCase : String&#xa;- date : Date&#xa;- user : User" style="text;strokeColor=#6C8EBF;fillColor=none;align=left;verticalAlign=top;spacingLeft=4;spacingRight=4;overflow=hidden;rotatable=0;points=[[0,0.5],[1,0.5]];portConstraint=eastwest;strokeWidth=1;spacingTop=0;fontSize=12;" parent="BGpOXGxUT94xlGYrzpRG-7" vertex="1">
          <mxGeometry y="26" width="133" height="101" as="geometry" />
        </mxCell>
        <mxCell id="BGpOXGxUT94xlGYrzpRG-9" value="+ getter() : String&#xa;+ setter() : void" style="text;strokeColor=#6C8EBF;fillColor=none;align=left;verticalAlign=top;spacingLeft=4;spacingRight=4;overflow=hidden;rotatable=0;points=[[0,0.5],[1,0.5]];portConstraint=eastwest;strokeWidth=1;spacingTop=0;fontSize=12;" parent="BGpOXGxUT94xlGYrzpRG-7" vertex="1">
          <mxGeometry y="127" width="133" height="47" as="geometry" />
        </mxCell>
        <mxCell id="BGpOXGxUT94xlGYrzpRG-10" value="Prescription" style="swimlane;fontStyle=1;align=center;verticalAlign=top;childLayout=stackLayout;horizontal=1;startSize=26;horizontalStack=0;resizeParent=1;resizeParentMax=0;resizeLast=0;collapsible=1;marginBottom=0;strokeWidth=1;spacingTop=0;fontSize=12;strokeColor=#6c8ebf;fillColor=#dae8fc;" parent="1" vertex="1">
          <mxGeometry x="304" y="851" width="144" height="176" as="geometry" />
        </mxCell>
        <mxCell id="BGpOXGxUT94xlGYrzpRG-11" value="- drugName : String&#xa;- method : String&#xa;- dose : Double&#xa;- presciberName : String&#xa;- date : Date&#xa;- user : User&#xa;" style="text;strokeColor=#6C8EBF;fillColor=none;align=left;verticalAlign=top;spacingLeft=4;spacingRight=4;overflow=hidden;rotatable=0;points=[[0,0.5],[1,0.5]];portConstraint=eastwest;strokeWidth=1;spacingTop=0;fontSize=12;" parent="BGpOXGxUT94xlGYrzpRG-10" vertex="1">
          <mxGeometry y="26" width="144" height="103" as="geometry" />
        </mxCell>
        <mxCell id="BGpOXGxUT94xlGYrzpRG-12" value="+ getter() : String&#xa;+ setter() : void" style="text;strokeColor=#6C8EBF;fillColor=none;align=left;verticalAlign=top;spacingLeft=4;spacingRight=4;overflow=hidden;rotatable=0;points=[[0,0.5],[1,0.5]];portConstraint=eastwest;strokeWidth=1;spacingTop=0;fontSize=12;" parent="BGpOXGxUT94xlGYrzpRG-10" vertex="1">
          <mxGeometry y="129" width="144" height="47" as="geometry" />
        </mxCell>
        <mxCell id="BGpOXGxUT94xlGYrzpRG-13" value="Report" style="swimlane;fontStyle=1;align=center;verticalAlign=top;childLayout=stackLayout;horizontal=1;startSize=26;horizontalStack=0;resizeParent=1;resizeParentMax=0;resizeLast=0;collapsible=1;marginBottom=0;strokeWidth=1;spacingTop=0;fontSize=12;strokeColor=#6c8ebf;fillColor=#dae8fc;" parent="1" vertex="1">
          <mxGeometry x="602" y="851" width="124" height="151" as="geometry" />
        </mxCell>
        <mxCell id="BGpOXGxUT94xlGYrzpRG-14" value="- reportID : String&#xa;- reportType: String&#xa;- date : Date&#xa;- user : User" style="text;strokeColor=#6C8EBF;fillColor=none;align=left;verticalAlign=top;spacingLeft=4;spacingRight=4;overflow=hidden;rotatable=0;points=[[0,0.5],[1,0.5]];portConstraint=eastwest;strokeWidth=1;spacingTop=0;fontSize=12;" parent="BGpOXGxUT94xlGYrzpRG-13" vertex="1">
          <mxGeometry y="26" width="124" height="71" as="geometry" />
        </mxCell>
        <mxCell id="BGpOXGxUT94xlGYrzpRG-15" value="+ getter() : String&#xa;+ setter() : void" style="text;strokeColor=#6C8EBF;fillColor=none;align=left;verticalAlign=top;spacingLeft=4;spacingRight=4;overflow=hidden;rotatable=0;points=[[0,0.5],[1,0.5]];portConstraint=eastwest;strokeWidth=1;spacingTop=0;fontSize=12;" parent="BGpOXGxUT94xlGYrzpRG-13" vertex="1">
          <mxGeometry y="97" width="124" height="54" as="geometry" />
        </mxCell>
        <mxCell id="BGpOXGxUT94xlGYrzpRG-16" value="Client" style="swimlane;fontStyle=1;align=center;verticalAlign=top;childLayout=stackLayout;horizontal=1;startSize=26;horizontalStack=0;resizeParent=1;resizeParentMax=0;resizeLast=0;collapsible=1;marginBottom=0;strokeWidth=1;spacingTop=0;fontSize=12;strokeColor=#6c8ebf;fillColor=#dae8fc;" parent="1" vertex="1">
          <mxGeometry x="280" y="271" width="140" height="260" as="geometry" />
        </mxCell>
        <mxCell id="BGpOXGxUT94xlGYrzpRG-17" value="- MRN : String&#xa;- date : Date&#xa;- ANCReg.No. : String&#xa;- facilityName : String&#xa;- user : User&#xa;- No.OfChildren : int&#xa;- LMP : Date&#xa;- EDD : Date&#xa;- gestAge : Date&#xa;" style="text;strokeColor=#6C8EBF;fillColor=none;align=left;verticalAlign=top;spacingLeft=4;spacingRight=4;overflow=hidden;rotatable=0;points=[[0,0.5],[1,0.5]];portConstraint=eastwest;strokeWidth=1;spacingTop=0;fontSize=12;" parent="BGpOXGxUT94xlGYrzpRG-16" vertex="1">
          <mxGeometry y="26" width="140" height="178" as="geometry" />
        </mxCell>
        <mxCell id="BGpOXGxUT94xlGYrzpRG-18" value="+ login() : void&#xa;+ view() : void&#xa;+ sendFeedback() : void" style="text;strokeColor=#6C8EBF;fillColor=none;align=left;verticalAlign=top;spacingLeft=4;spacingRight=4;overflow=hidden;rotatable=0;points=[[0,0.5],[1,0.5]];portConstraint=eastwest;strokeWidth=1;spacingTop=0;fontSize=12;" parent="BGpOXGxUT94xlGYrzpRG-16" vertex="1">
          <mxGeometry y="204" width="140" height="56" as="geometry" />
        </mxCell>
        <mxCell id="BGpOXGxUT94xlGYrzpRG-19" value="ANCVisit" style="swimlane;fontStyle=1;align=center;verticalAlign=top;childLayout=stackLayout;horizontal=1;startSize=26;horizontalStack=0;resizeParent=1;resizeParentMax=0;resizeLast=0;collapsible=1;marginBottom=0;strokeWidth=1;spacingTop=0;fontSize=12;strokeColor=#6c8ebf;fillColor=#dae8fc;" parent="1" vertex="1">
          <mxGeometry x="199" y="36" width="140" height="171" as="geometry" />
        </mxCell>
        <mxCell id="BGpOXGxUT94xlGYrzpRG-20" value="- date : Date&#xa;- anemia : String&#xa;- user : User&#xa;- BP : String&#xa;- hemoglobin : String&#xa;- blood-group : String&#xa;- tuberculosis : String" style="text;strokeColor=#6C8EBF;fillColor=none;align=left;verticalAlign=top;spacingLeft=4;spacingRight=4;overflow=hidden;rotatable=0;points=[[0,0.5],[1,0.5]];portConstraint=eastwest;strokeWidth=1;spacingTop=0;fontSize=12;" parent="BGpOXGxUT94xlGYrzpRG-19" vertex="1">
          <mxGeometry y="26" width="140" height="107" as="geometry" />
        </mxCell>
        <mxCell id="G7fRazRPBhIYGSNJgmAT-4" value="+ getter() : String&#xa;+ setter() : void" style="text;strokeColor=#6C8EBF;fillColor=none;align=left;verticalAlign=top;spacingLeft=4;spacingRight=4;overflow=hidden;rotatable=0;points=[[0,0.5],[1,0.5]];portConstraint=eastwest;strokeWidth=1;spacingTop=0;fontSize=12;" parent="BGpOXGxUT94xlGYrzpRG-19" vertex="1">
          <mxGeometry y="133" width="140" height="38" as="geometry" />
        </mxCell>
        <mxCell id="BGpOXGxUT94xlGYrzpRG-21" value="Delivery" style="swimlane;fontStyle=1;align=center;verticalAlign=top;childLayout=stackLayout;horizontal=1;startSize=26;horizontalStack=0;resizeParent=1;resizeParentMax=0;resizeLast=0;collapsible=1;marginBottom=0;strokeWidth=1;spacingTop=0;fontSize=12;strokeColor=#6c8ebf;fillColor=#dae8fc;" parent="1" vertex="1">
          <mxGeometry x="10.999999999999972" y="420" width="141" height="173" as="geometry" />
        </mxCell>
        <mxCell id="BGpOXGxUT94xlGYrzpRG-22" value="- date : Date&#xa;- anemia : String&#xa;- fetal-heartbeat : String&#xa;- user : User&#xa;- urine-test : String&#xa;- blood-group : String&#xa;- tuberculosis : String&#xa;&#xa;" style="text;strokeColor=#6C8EBF;fillColor=none;align=left;verticalAlign=top;spacingLeft=4;spacingRight=4;overflow=hidden;rotatable=0;points=[[0,0.5],[1,0.5]];portConstraint=eastwest;strokeWidth=1;spacingTop=0;fontSize=12;" parent="BGpOXGxUT94xlGYrzpRG-21" vertex="1">
          <mxGeometry y="26" width="141" height="109" as="geometry" />
        </mxCell>
        <mxCell id="G7fRazRPBhIYGSNJgmAT-1" value="+ getter() : String&#xa;+ setter() : void" style="text;strokeColor=#6C8EBF;fillColor=none;align=left;verticalAlign=top;spacingLeft=4;spacingRight=4;overflow=hidden;rotatable=0;points=[[0,0.5],[1,0.5]];portConstraint=eastwest;strokeWidth=1;spacingTop=0;fontSize=12;" parent="BGpOXGxUT94xlGYrzpRG-21" vertex="1">
          <mxGeometry y="135" width="141" height="38" as="geometry" />
        </mxCell>
        <mxCell id="BGpOXGxUT94xlGYrzpRG-23" value="PNCVisit" style="swimlane;fontStyle=1;align=center;verticalAlign=top;childLayout=stackLayout;horizontal=1;startSize=26;horizontalStack=0;resizeParent=1;resizeParentMax=0;resizeLast=0;collapsible=1;marginBottom=0;strokeWidth=1;spacingTop=0;fontSize=12;strokeColor=#6c8ebf;fillColor=#dae8fc;" parent="1" vertex="1">
          <mxGeometry x="9.999999999999972" y="217" width="163" height="195" as="geometry" />
        </mxCell>
        <mxCell id="BGpOXGxUT94xlGYrzpRG-24" value="- date : Date&#xa;- temperature: String&#xa;- dribbling : String&#xa;- breast: String&#xa;- anemia : String&#xa;- vitamin: String&#xa;- immunization : Boolean&#xa;- contraceptiveInfo : Boolean&#xa;- user : User&#xa;" style="text;strokeColor=#6C8EBF;fillColor=none;align=left;verticalAlign=top;spacingLeft=4;spacingRight=4;overflow=hidden;rotatable=0;points=[[0,0.5],[1,0.5]];portConstraint=eastwest;strokeWidth=1;spacingTop=0;fontSize=12;" parent="BGpOXGxUT94xlGYrzpRG-23" vertex="1">
          <mxGeometry y="26" width="163" height="134" as="geometry" />
        </mxCell>
        <mxCell id="G7fRazRPBhIYGSNJgmAT-2" value="+ getter() : String&#xa;+ setter() : void" style="text;strokeColor=#6C8EBF;fillColor=none;align=left;verticalAlign=top;spacingLeft=4;spacingRight=4;overflow=hidden;rotatable=0;points=[[0,0.5],[1,0.5]];portConstraint=eastwest;strokeWidth=1;spacingTop=0;fontSize=12;" parent="BGpOXGxUT94xlGYrzpRG-23" vertex="1">
          <mxGeometry y="160" width="163" height="35" as="geometry" />
        </mxCell>
        <mxCell id="BGpOXGxUT94xlGYrzpRG-25" value="NewBorn" style="swimlane;fontStyle=1;align=center;verticalAlign=top;childLayout=stackLayout;horizontal=1;startSize=26;horizontalStack=0;resizeParent=1;resizeParentMax=0;resizeLast=0;collapsible=1;marginBottom=0;strokeWidth=1;spacingTop=0;fontSize=12;strokeColor=#6c8ebf;fillColor=#dae8fc;" parent="1" vertex="1">
          <mxGeometry x="10.999999999999986" y="36" width="143" height="173" as="geometry" />
        </mxCell>
        <mxCell id="BGpOXGxUT94xlGYrzpRG-26" value="- ID : String&#xa;- time : Date- sex : String&#xa;- birthWeight : Double&#xa;- user : User&#xa;- sephallic : Boolean&#xa;- BCGVacine :Boolean&#xa;- polioVacine :Boolean" style="text;strokeColor=#6C8EBF;fillColor=none;align=left;verticalAlign=top;spacingLeft=4;spacingRight=4;overflow=hidden;rotatable=0;points=[[0,0.5],[1,0.5]];portConstraint=eastwest;strokeWidth=1;spacingTop=0;fontSize=12;" parent="BGpOXGxUT94xlGYrzpRG-25" vertex="1">
          <mxGeometry y="26" width="143" height="109" as="geometry" />
        </mxCell>
        <mxCell id="G7fRazRPBhIYGSNJgmAT-3" value="+ getter() : String&#xa;+ setter() : void" style="text;strokeColor=#6C8EBF;fillColor=none;align=left;verticalAlign=top;spacingLeft=4;spacingRight=4;overflow=hidden;rotatable=0;points=[[0,0.5],[1,0.5]];portConstraint=eastwest;strokeWidth=1;spacingTop=0;fontSize=12;" parent="BGpOXGxUT94xlGYrzpRG-25" vertex="1">
          <mxGeometry y="135" width="143" height="38" as="geometry" />
        </mxCell>
        <mxCell id="BGpOXGxUT94xlGYrzpRG-27" value="Midwife" style="swimlane;fontStyle=1;align=center;verticalAlign=top;childLayout=stackLayout;horizontal=1;startSize=26;horizontalStack=0;resizeParent=1;resizeParentMax=0;resizeLast=0;collapsible=1;marginBottom=0;strokeWidth=1;spacingTop=0;fontSize=12;strokeColor=#6c8ebf;fillColor=#dae8fc;" parent="1" vertex="1">
          <mxGeometry x="470" y="408" width="161" height="120" as="geometry" />
        </mxCell>
        <mxCell id="hK9TueUT5ADjn1TZDLv3-11" value="" style="text;strokeColor=#6C8EBF;fillColor=none;align=left;verticalAlign=top;spacingLeft=4;spacingRight=4;overflow=hidden;rotatable=0;points=[[0,0.5],[1,0.5]];portConstraint=eastwest;strokeWidth=1;spacingTop=0;fontSize=12;" parent="BGpOXGxUT94xlGYrzpRG-27" vertex="1">
          <mxGeometry y="26" width="161" height="20" as="geometry" />
        </mxCell>
        <mxCell id="BGpOXGxUT94xlGYrzpRG-29" value="+ addMaternalAttr() : void&#xa;+ updateMaternalAttr() : void&#xa;+ view() : void&#xa;+ search() : void" style="text;strokeColor=#6C8EBF;fillColor=none;align=left;verticalAlign=top;spacingLeft=4;spacingRight=4;overflow=hidden;rotatable=0;points=[[0,0.5],[1,0.5]];portConstraint=eastwest;strokeWidth=1;spacingTop=0;fontSize=12;" parent="BGpOXGxUT94xlGYrzpRG-27" vertex="1">
          <mxGeometry y="46" width="161" height="74" as="geometry" />
        </mxCell>
        <mxCell id="BGpOXGxUT94xlGYrzpRG-30" value="Doctor" style="swimlane;fontStyle=1;align=center;verticalAlign=top;childLayout=stackLayout;horizontal=1;startSize=26;horizontalStack=0;resizeParent=1;resizeParentMax=0;resizeLast=0;collapsible=1;marginBottom=0;strokeWidth=1;spacingTop=0;fontSize=12;strokeColor=#6c8ebf;fillColor=#dae8fc;" parent="1" vertex="1">
          <mxGeometry x="660" y="408" width="159" height="126" as="geometry">
            <mxRectangle x="672" y="390" width="65" height="26" as="alternateBounds" />
          </mxGeometry>
        </mxCell>
        <mxCell id="hK9TueUT5ADjn1TZDLv3-12" value="" style="text;strokeColor=#6C8EBF;fillColor=none;align=left;verticalAlign=top;spacingLeft=4;spacingRight=4;overflow=hidden;rotatable=0;points=[[0,0.5],[1,0.5]];portConstraint=eastwest;strokeWidth=1;spacingTop=0;fontSize=12;" parent="BGpOXGxUT94xlGYrzpRG-30" vertex="1">
          <mxGeometry y="26" width="159" height="20" as="geometry" />
        </mxCell>
        <mxCell id="BGpOXGxUT94xlGYrzpRG-32" value="+ sendRequest() : void&#xa;+ updateData() : void&#xa;+ view() : void&#xa;+ examineClient() : void&#xa;+ search() : void&#xa;" style="text;strokeColor=#6C8EBF;fillColor=none;align=left;verticalAlign=top;spacingLeft=4;spacingRight=4;overflow=hidden;rotatable=0;points=[[0,0.5],[1,0.5]];portConstraint=eastwest;strokeWidth=1;spacingTop=0;fontSize=12;" parent="BGpOXGxUT94xlGYrzpRG-30" vertex="1">
          <mxGeometry y="46" width="159" height="80" as="geometry" />
        </mxCell>
        <mxCell id="BGpOXGxUT94xlGYrzpRG-33" value="" style="endArrow=open;html=1;rounded=0;strokeWidth=1;fillColor=#dae8fc;strokeColor=#6c8ebf;endFill=0;exitX=0.068;exitY=0.001;exitDx=0;exitDy=0;exitPerimeter=0;entryX=0.65;entryY=1.088;entryDx=0;entryDy=0;entryPerimeter=0;" parent="1" source="BGpOXGxUT94xlGYrzpRG-16" target="G7fRazRPBhIYGSNJgmAT-4" edge="1">
          <mxGeometry width="50" height="50" relative="1" as="geometry">
            <mxPoint x="290" y="271" as="sourcePoint" />
            <mxPoint x="290" y="224" as="targetPoint" />
          </mxGeometry>
        </mxCell>
        <mxCell id="BGpOXGxUT94xlGYrzpRG-34" value="followup" style="edgeLabel;html=1;align=center;verticalAlign=middle;resizable=0;points=[];labelBackgroundColor=none;" parent="BGpOXGxUT94xlGYrzpRG-33" vertex="1" connectable="0">
          <mxGeometry x="0.4265" y="-2" relative="1" as="geometry">
            <mxPoint x="-28" y="11" as="offset" />
          </mxGeometry>
        </mxCell>
        <mxCell id="BGpOXGxUT94xlGYrzpRG-35" value="&lt;b&gt;1&lt;/b&gt;" style="edgeLabel;html=1;align=center;verticalAlign=middle;resizable=0;points=[];" parent="BGpOXGxUT94xlGYrzpRG-33" vertex="1" connectable="0">
          <mxGeometry x="-0.4229" y="-2" relative="1" as="geometry">
            <mxPoint x="-8" y="6" as="offset" />
          </mxGeometry>
        </mxCell>
        <mxCell id="BGpOXGxUT94xlGYrzpRG-36" value="0&lt;font style=&quot;font-size: 11px;&quot;&gt;&lt;b&gt;..8&lt;/b&gt;&lt;/font&gt;" style="edgeLabel;html=1;align=center;verticalAlign=middle;resizable=0;points=[];" parent="BGpOXGxUT94xlGYrzpRG-33" vertex="1" connectable="0">
          <mxGeometry x="0.5838" y="-3" relative="1" as="geometry">
            <mxPoint x="-17" y="-5" as="offset" />
          </mxGeometry>
        </mxCell>
        <mxCell id="BGpOXGxUT94xlGYrzpRG-37" value="" style="endArrow=diamondThin;html=1;rounded=0;strokeWidth=1;fillColor=#dae8fc;strokeColor=#6c8ebf;startArrow=none;startFill=0;endFill=1;" parent="1" edge="1">
          <mxGeometry width="50" height="50" relative="1" as="geometry">
            <mxPoint x="280" y="291" as="sourcePoint" />
            <mxPoint x="154" y="173" as="targetPoint" />
            <Array as="points">
              <mxPoint x="193" y="291" />
              <mxPoint x="193" y="173" />
            </Array>
          </mxGeometry>
        </mxCell>
        <mxCell id="BGpOXGxUT94xlGYrzpRG-38" value="has" style="edgeLabel;html=1;align=center;verticalAlign=middle;resizable=0;points=[];labelBackgroundColor=none;" parent="BGpOXGxUT94xlGYrzpRG-37" vertex="1" connectable="0">
          <mxGeometry x="0.4265" y="-2" relative="1" as="geometry">
            <mxPoint x="9" y="55" as="offset" />
          </mxGeometry>
        </mxCell>
        <mxCell id="BGpOXGxUT94xlGYrzpRG-39" value="&lt;b&gt;1&lt;/b&gt;" style="edgeLabel;html=1;align=center;verticalAlign=middle;resizable=0;points=[];fontSize=11;" parent="BGpOXGxUT94xlGYrzpRG-37" vertex="1" connectable="0">
          <mxGeometry x="-0.7448" y="-6" relative="1" as="geometry">
            <mxPoint x="24" y="-3" as="offset" />
          </mxGeometry>
        </mxCell>
        <mxCell id="BGpOXGxUT94xlGYrzpRG-40" value="0&lt;b&gt;..*&lt;/b&gt;" style="edgeLabel;html=1;align=center;verticalAlign=middle;resizable=0;points=[];fontSize=11;" parent="BGpOXGxUT94xlGYrzpRG-37" vertex="1" connectable="0">
          <mxGeometry x="0.857" y="-8" relative="1" as="geometry">
            <mxPoint x="-8" y="-4" as="offset" />
          </mxGeometry>
        </mxCell>
        <mxCell id="BGpOXGxUT94xlGYrzpRG-41" value="" style="endArrow=open;html=1;rounded=0;strokeWidth=1;fillColor=#dae8fc;strokeColor=#6c8ebf;endFill=0;" parent="1" edge="1">
          <mxGeometry width="50" height="50" relative="1" as="geometry">
            <mxPoint x="280" y="330" as="sourcePoint" />
            <mxPoint x="172" y="330" as="targetPoint" />
          </mxGeometry>
        </mxCell>
        <mxCell id="BGpOXGxUT94xlGYrzpRG-42" value="followup" style="edgeLabel;html=1;align=center;verticalAlign=middle;resizable=0;points=[];labelBackgroundColor=none;" parent="BGpOXGxUT94xlGYrzpRG-41" vertex="1" connectable="0">
          <mxGeometry x="0.4265" y="-2" relative="1" as="geometry">
            <mxPoint x="24" y="-8" as="offset" />
          </mxGeometry>
        </mxCell>
        <mxCell id="BGpOXGxUT94xlGYrzpRG-43" value="&lt;b&gt;1&lt;/b&gt;" style="edgeLabel;html=1;align=center;verticalAlign=middle;resizable=0;points=[];fontSize=11;" parent="BGpOXGxUT94xlGYrzpRG-41" vertex="1" connectable="0">
          <mxGeometry x="-0.6929" y="-4" relative="1" as="geometry">
            <mxPoint x="6" y="-5" as="offset" />
          </mxGeometry>
        </mxCell>
        <mxCell id="BGpOXGxUT94xlGYrzpRG-44" value="&lt;b&gt;1..*&lt;/b&gt;" style="edgeLabel;html=1;align=center;verticalAlign=middle;resizable=0;points=[];fontSize=11;" parent="BGpOXGxUT94xlGYrzpRG-41" vertex="1" connectable="0">
          <mxGeometry x="0.7768" y="-7" relative="1" as="geometry">
            <mxPoint x="3" y="-3" as="offset" />
          </mxGeometry>
        </mxCell>
        <mxCell id="BGpOXGxUT94xlGYrzpRG-45" value="" style="endArrow=open;html=1;rounded=0;strokeWidth=1;fillColor=#dae8fc;strokeColor=#6c8ebf;exitX=0.021;exitY=0.286;exitDx=0;exitDy=0;entryX=0.986;entryY=0.25;entryDx=0;entryDy=0;entryPerimeter=0;exitPerimeter=0;endFill=0;" parent="1" edge="1">
          <mxGeometry width="50" height="50" relative="1" as="geometry">
            <mxPoint x="282.94000000000005" y="476.0160000000001" as="sourcePoint" />
            <mxPoint x="151.02600000000007" y="477" as="targetPoint" />
          </mxGeometry>
        </mxCell>
        <mxCell id="BGpOXGxUT94xlGYrzpRG-46" value="gives" style="edgeLabel;html=1;align=center;verticalAlign=middle;resizable=0;points=[];labelBackgroundColor=none;" parent="BGpOXGxUT94xlGYrzpRG-45" vertex="1" connectable="0">
          <mxGeometry x="0.4265" y="-2" relative="1" as="geometry">
            <mxPoint x="29" y="-8" as="offset" />
          </mxGeometry>
        </mxCell>
        <mxCell id="BGpOXGxUT94xlGYrzpRG-47" value="&lt;b&gt;1&lt;/b&gt;" style="edgeLabel;html=1;align=center;verticalAlign=middle;resizable=0;points=[];fontSize=11;" parent="BGpOXGxUT94xlGYrzpRG-45" vertex="1" connectable="0">
          <mxGeometry x="-0.6929" y="-4" relative="1" as="geometry">
            <mxPoint x="8" y="-5" as="offset" />
          </mxGeometry>
        </mxCell>
        <mxCell id="BGpOXGxUT94xlGYrzpRG-48" value="&lt;b&gt;1..*&lt;/b&gt;" style="edgeLabel;html=1;align=center;verticalAlign=middle;resizable=0;points=[];fontSize=11;" parent="BGpOXGxUT94xlGYrzpRG-45" vertex="1" connectable="0">
          <mxGeometry x="0.7768" y="-7" relative="1" as="geometry">
            <mxPoint x="-4" y="-6" as="offset" />
          </mxGeometry>
        </mxCell>
        <mxCell id="BGpOXGxUT94xlGYrzpRG-49" value="" style="endArrow=none;html=1;rounded=0;fontSize=11;strokeWidth=1;startArrow=none;startFill=0;fillColor=#ffe6cc;strokeColor=#d79b00;" parent="1" edge="1">
          <mxGeometry width="50" height="50" relative="1" as="geometry">
            <mxPoint x="562" y="371" as="sourcePoint" />
            <mxPoint x="419" y="371" as="targetPoint" />
            <Array as="points" />
          </mxGeometry>
        </mxCell>
        <mxCell id="BGpOXGxUT94xlGYrzpRG-50" style="edgeStyle=none;rounded=0;orthogonalLoop=1;jettySize=auto;html=1;fontSize=11;startArrow=none;startFill=0;endArrow=none;endFill=0;strokeWidth=1;fillColor=#ffe6cc;strokeColor=#d79b00;" parent="1" edge="1">
          <mxGeometry relative="1" as="geometry">
            <mxPoint x="643" y="370" as="targetPoint" />
            <mxPoint x="643" y="611" as="sourcePoint" />
          </mxGeometry>
        </mxCell>
        <mxCell id="BGpOXGxUT94xlGYrzpRG-51" value="" style="endArrow=none;html=1;rounded=0;fontSize=11;strokeWidth=1;fillColor=#ffe6cc;strokeColor=#d79b00;" parent="1" edge="1">
          <mxGeometry width="50" height="50" relative="1" as="geometry">
            <mxPoint x="720" y="371" as="sourcePoint" />
            <mxPoint x="560" y="371" as="targetPoint" />
          </mxGeometry>
        </mxCell>
        <mxCell id="BGpOXGxUT94xlGYrzpRG-52" style="edgeStyle=none;rounded=0;orthogonalLoop=1;jettySize=auto;html=1;fontSize=11;startArrow=none;startFill=0;endArrow=block;endFill=0;strokeWidth=1;fillColor=#ffe6cc;strokeColor=#d79b00;entryX=0.123;entryY=1.01;entryDx=0;entryDy=0;entryPerimeter=0;" parent="1" target="BGpOXGxUT94xlGYrzpRG-3" edge="1">
          <mxGeometry relative="1" as="geometry">
            <mxPoint x="637.0799999999999" y="312.98" as="targetPoint" />
            <mxPoint x="675" y="371" as="sourcePoint" />
          </mxGeometry>
        </mxCell>
        <mxCell id="BGpOXGxUT94xlGYrzpRG-53" style="edgeStyle=none;rounded=0;orthogonalLoop=1;jettySize=auto;html=1;fontSize=11;startArrow=none;startFill=0;endArrow=none;endFill=0;strokeWidth=1;fillColor=#fff2cc;strokeColor=#d6b656;entryX=0.513;entryY=1.083;entryDx=0;entryDy=0;entryPerimeter=0;" parent="1" edge="1">
          <mxGeometry relative="1" as="geometry">
            <mxPoint x="560.0799999999999" y="370.98" as="targetPoint" />
            <mxPoint x="560" y="409" as="sourcePoint" />
          </mxGeometry>
        </mxCell>
        <mxCell id="BGpOXGxUT94xlGYrzpRG-54" style="edgeStyle=none;rounded=0;orthogonalLoop=1;jettySize=auto;html=1;fontSize=11;startArrow=none;startFill=0;endArrow=none;endFill=0;strokeWidth=1;fillColor=#ffe6cc;strokeColor=#d79b00;entryX=0.513;entryY=1.083;entryDx=0;entryDy=0;entryPerimeter=0;" parent="1" edge="1">
          <mxGeometry relative="1" as="geometry">
            <mxPoint x="720.0799999999999" y="370.98" as="targetPoint" />
            <mxPoint x="720" y="407" as="sourcePoint" />
          </mxGeometry>
        </mxCell>
        <mxCell id="BGpOXGxUT94xlGYrzpRG-55" value="Appointment" style="swimlane;fontStyle=1;align=center;verticalAlign=top;childLayout=stackLayout;horizontal=1;startSize=26;horizontalStack=0;resizeParent=1;resizeParentMax=0;resizeLast=0;collapsible=1;marginBottom=0;strokeWidth=1;spacingTop=0;fontSize=12;strokeColor=#6c8ebf;fillColor=#dae8fc;" parent="1" vertex="1">
          <mxGeometry x="472" y="37" width="116" height="159" as="geometry" />
        </mxCell>
        <mxCell id="BGpOXGxUT94xlGYrzpRG-56" value="- fullName : String&#xa;- phoneNo. : String&#xa;- email : String&#xa;- date : Date&#xa;- user : User" style="text;strokeColor=#6C8EBF;fillColor=none;align=left;verticalAlign=top;spacingLeft=4;spacingRight=4;overflow=hidden;rotatable=0;points=[[0,0.5],[1,0.5]];portConstraint=eastwest;strokeWidth=1;spacingTop=0;fontSize=12;" parent="BGpOXGxUT94xlGYrzpRG-55" vertex="1">
          <mxGeometry y="26" width="116" height="79" as="geometry" />
        </mxCell>
        <mxCell id="BGpOXGxUT94xlGYrzpRG-57" value="+ book() : void&#xa;+ getter() : String&#xa;+ setter() : void" style="text;strokeColor=#6C8EBF;fillColor=none;align=left;verticalAlign=top;spacingLeft=4;spacingRight=4;overflow=hidden;rotatable=0;points=[[0,0.5],[1,0.5]];portConstraint=eastwest;strokeWidth=1;spacingTop=0;fontSize=12;" parent="BGpOXGxUT94xlGYrzpRG-55" vertex="1">
          <mxGeometry y="105" width="116" height="54" as="geometry" />
        </mxCell>
        <mxCell id="BGpOXGxUT94xlGYrzpRG-58" value="Gynacology" style="swimlane;fontStyle=1;align=center;verticalAlign=top;childLayout=stackLayout;horizontal=1;startSize=26;horizontalStack=0;resizeParent=1;resizeParentMax=0;resizeLast=0;collapsible=1;marginBottom=0;strokeWidth=1;spacingTop=0;fontSize=12;strokeColor=#6c8ebf;fillColor=#dae8fc;" parent="1" vertex="1">
          <mxGeometry x="600" y="651" width="130" height="100" as="geometry" />
        </mxCell>
        <mxCell id="hK9TueUT5ADjn1TZDLv3-18" value="" style="text;strokeColor=#6C8EBF;fillColor=none;align=left;verticalAlign=top;spacingLeft=4;spacingRight=4;overflow=hidden;rotatable=0;points=[[0,0.5],[1,0.5]];portConstraint=eastwest;strokeWidth=1;spacingTop=0;fontSize=12;" parent="BGpOXGxUT94xlGYrzpRG-58" vertex="1">
          <mxGeometry y="26" width="130" height="20" as="geometry" />
        </mxCell>
        <mxCell id="BGpOXGxUT94xlGYrzpRG-60" value="+ viewRequest() : void&#xa;+ performOpes() : void&#xa;+ search() : void" style="text;strokeColor=#6C8EBF;fillColor=none;align=left;verticalAlign=top;spacingLeft=4;spacingRight=4;overflow=hidden;rotatable=0;points=[[0,0.5],[1,0.5]];portConstraint=eastwest;strokeWidth=1;spacingTop=0;fontSize=12;" parent="BGpOXGxUT94xlGYrzpRG-58" vertex="1">
          <mxGeometry y="46" width="130" height="54" as="geometry" />
        </mxCell>
        <mxCell id="BGpOXGxUT94xlGYrzpRG-61" value="LabTechnician" style="swimlane;fontStyle=1;align=center;verticalAlign=top;childLayout=stackLayout;horizontal=1;startSize=26;horizontalStack=0;resizeParent=1;resizeParentMax=0;resizeLast=0;collapsible=1;marginBottom=0;strokeWidth=1;spacingTop=0;fontSize=12;strokeColor=#6c8ebf;fillColor=#dae8fc;" parent="1" vertex="1">
          <mxGeometry x="161" y="651" width="122.67" height="110" as="geometry" />
        </mxCell>
        <mxCell id="hK9TueUT5ADjn1TZDLv3-15" value="" style="text;strokeColor=#6C8EBF;fillColor=none;align=left;verticalAlign=top;spacingLeft=4;spacingRight=4;overflow=hidden;rotatable=0;points=[[0,0.5],[1,0.5]];portConstraint=eastwest;strokeWidth=1;spacingTop=0;fontSize=12;" parent="BGpOXGxUT94xlGYrzpRG-61" vertex="1">
          <mxGeometry y="26" width="122.67" height="20" as="geometry" />
        </mxCell>
        <mxCell id="BGpOXGxUT94xlGYrzpRG-63" value="+ sendResult() : void&#xa;+ updateData() : void&#xa;+ view() : void&#xa;+ search() : void" style="text;strokeColor=#6C8EBF;fillColor=none;align=left;verticalAlign=top;spacingLeft=4;spacingRight=4;overflow=hidden;rotatable=0;points=[[0,0.5],[1,0.5]];portConstraint=eastwest;strokeWidth=1;spacingTop=0;fontSize=12;" parent="BGpOXGxUT94xlGYrzpRG-61" vertex="1">
          <mxGeometry y="46" width="122.67" height="64" as="geometry" />
        </mxCell>
        <mxCell id="BGpOXGxUT94xlGYrzpRG-64" value="Pharmacist " style="swimlane;fontStyle=1;align=center;verticalAlign=top;childLayout=stackLayout;horizontal=1;startSize=26;horizontalStack=0;resizeParent=1;resizeParentMax=0;resizeLast=0;collapsible=1;marginBottom=0;strokeWidth=1;spacingTop=0;fontSize=12;strokeColor=#6c8ebf;fillColor=#dae8fc;" parent="1" vertex="1">
          <mxGeometry x="300" y="651" width="143.67" height="100" as="geometry" />
        </mxCell>
        <mxCell id="hK9TueUT5ADjn1TZDLv3-14" value="" style="text;strokeColor=#6C8EBF;fillColor=none;align=left;verticalAlign=top;spacingLeft=4;spacingRight=4;overflow=hidden;rotatable=0;points=[[0,0.5],[1,0.5]];portConstraint=eastwest;strokeWidth=1;spacingTop=0;fontSize=12;" parent="BGpOXGxUT94xlGYrzpRG-64" vertex="1">
          <mxGeometry y="26" width="143.67" height="20" as="geometry" />
        </mxCell>
        <mxCell id="BGpOXGxUT94xlGYrzpRG-66" value="+ viewPrescription :void&#xa;+ addDrugDetail() : void&#xa;+ search() : void" style="text;strokeColor=#6C8EBF;fillColor=none;align=left;verticalAlign=top;spacingLeft=4;spacingRight=4;overflow=hidden;rotatable=0;points=[[0,0.5],[1,0.5]];portConstraint=eastwest;strokeWidth=1;spacingTop=0;fontSize=12;" parent="BGpOXGxUT94xlGYrzpRG-64" vertex="1">
          <mxGeometry y="46" width="143.67" height="54" as="geometry" />
        </mxCell>
        <mxCell id="BGpOXGxUT94xlGYrzpRG-67" value="HMISOfficer" style="swimlane;fontStyle=1;align=center;verticalAlign=top;childLayout=stackLayout;horizontal=1;startSize=26;horizontalStack=0;resizeParent=1;resizeParentMax=0;resizeLast=0;collapsible=1;marginBottom=0;strokeWidth=1;spacingTop=0;fontSize=12;strokeColor=#6c8ebf;fillColor=#dae8fc;" parent="1" vertex="1">
          <mxGeometry x="455.33000000000004" y="650" width="133.67" height="102" as="geometry" />
        </mxCell>
        <mxCell id="hK9TueUT5ADjn1TZDLv3-13" value="" style="text;strokeColor=#6C8EBF;fillColor=none;align=left;verticalAlign=top;spacingLeft=4;spacingRight=4;overflow=hidden;rotatable=0;points=[[0,0.5],[1,0.5]];portConstraint=eastwest;strokeWidth=1;spacingTop=0;fontSize=12;" parent="BGpOXGxUT94xlGYrzpRG-67" vertex="1">
          <mxGeometry y="26" width="133.67" height="20" as="geometry" />
        </mxCell>
        <mxCell id="BGpOXGxUT94xlGYrzpRG-69" value="+ viewReport() : void&#xa;+ sendFeedback() :&#xa;   void" style="text;strokeColor=#6C8EBF;fillColor=none;align=left;verticalAlign=top;spacingLeft=4;spacingRight=4;overflow=hidden;rotatable=0;points=[[0,0.5],[1,0.5]];portConstraint=eastwest;strokeWidth=1;spacingTop=0;fontSize=12;" parent="BGpOXGxUT94xlGYrzpRG-67" vertex="1">
          <mxGeometry y="46" width="133.67" height="56" as="geometry" />
        </mxCell>
        <mxCell id="BGpOXGxUT94xlGYrzpRG-70" value="DataClerk" style="swimlane;fontStyle=1;align=center;verticalAlign=top;childLayout=stackLayout;horizontal=1;startSize=26;horizontalStack=0;resizeParent=1;resizeParentMax=0;resizeLast=0;collapsible=1;marginBottom=0;strokeWidth=1;spacingTop=0;fontSize=12;strokeColor=#6c8ebf;fillColor=#dae8fc;" parent="1" vertex="1">
          <mxGeometry x="457" y="851" width="133.67" height="126" as="geometry" />
        </mxCell>
        <mxCell id="hK9TueUT5ADjn1TZDLv3-17" value="" style="text;strokeColor=#6C8EBF;fillColor=none;align=left;verticalAlign=top;spacingLeft=4;spacingRight=4;overflow=hidden;rotatable=0;points=[[0,0.5],[1,0.5]];portConstraint=eastwest;strokeWidth=1;spacingTop=0;fontSize=12;" parent="BGpOXGxUT94xlGYrzpRG-70" vertex="1">
          <mxGeometry y="26" width="133.67" height="20" as="geometry" />
        </mxCell>
        <mxCell id="BGpOXGxUT94xlGYrzpRG-72" value="+ generateReport() : void&#xa;+ sendReport() : void&#xa;+ updateReport() : void&#xa;+ view() : void&#xa;+ search() : void&#xa;" style="text;strokeColor=#6C8EBF;fillColor=none;align=left;verticalAlign=top;spacingLeft=4;spacingRight=4;overflow=hidden;rotatable=0;points=[[0,0.5],[1,0.5]];portConstraint=eastwest;strokeWidth=1;spacingTop=0;fontSize=12;" parent="BGpOXGxUT94xlGYrzpRG-70" vertex="1">
          <mxGeometry y="46" width="133.67" height="80" as="geometry" />
        </mxCell>
        <mxCell id="BGpOXGxUT94xlGYrzpRG-73" style="edgeStyle=none;rounded=0;orthogonalLoop=1;jettySize=auto;html=1;fontSize=11;startArrow=none;startFill=0;endArrow=none;endFill=0;strokeWidth=1;fillColor=#ffe6cc;strokeColor=#d79b00;exitX=0.75;exitY=0;exitDx=0;exitDy=0;" parent="1" edge="1">
          <mxGeometry relative="1" as="geometry">
            <mxPoint x="542" y="611" as="targetPoint" />
            <mxPoint x="541.5825" y="650" as="sourcePoint" />
          </mxGeometry>
        </mxCell>
        <mxCell id="BGpOXGxUT94xlGYrzpRG-74" value="Receptionist" style="swimlane;fontStyle=1;align=center;verticalAlign=top;childLayout=stackLayout;horizontal=1;startSize=26;horizontalStack=0;resizeParent=1;resizeParentMax=0;resizeLast=0;collapsible=1;marginBottom=0;strokeWidth=1;spacingTop=0;fontSize=12;strokeColor=#6c8ebf;fillColor=#dae8fc;" parent="1" vertex="1">
          <mxGeometry x="16" y="651" width="130" height="120" as="geometry" />
        </mxCell>
        <mxCell id="BGpOXGxUT94xlGYrzpRG-75" value="" style="text;strokeColor=#6C8EBF;fillColor=none;align=left;verticalAlign=top;spacingLeft=4;spacingRight=4;overflow=hidden;rotatable=0;points=[[0,0.5],[1,0.5]];portConstraint=eastwest;strokeWidth=1;spacingTop=0;fontSize=12;" parent="BGpOXGxUT94xlGYrzpRG-74" vertex="1">
          <mxGeometry y="26" width="130" height="24" as="geometry" />
        </mxCell>
        <mxCell id="BGpOXGxUT94xlGYrzpRG-76" value="+ addClient(): void&#xa;+ updateData(): void&#xa;+ getter() : String&#xa;+ setter() : void" style="text;strokeColor=#6C8EBF;fillColor=none;align=left;verticalAlign=top;spacingLeft=4;spacingRight=4;overflow=hidden;rotatable=0;points=[[0,0.5],[1,0.5]];portConstraint=eastwest;strokeWidth=1;spacingTop=0;fontSize=12;" parent="BGpOXGxUT94xlGYrzpRG-74" vertex="1">
          <mxGeometry y="50" width="130" height="70" as="geometry" />
        </mxCell>
        <mxCell id="BGpOXGxUT94xlGYrzpRG-77" value="" style="endArrow=none;html=1;rounded=0;strokeWidth=1;entryX=0.001;entryY=0.009;entryDx=0;entryDy=0;exitX=1;exitY=0.903;exitDx=0;exitDy=0;entryPerimeter=0;fillColor=#dae8fc;strokeColor=#6c8ebf;exitPerimeter=0;startArrow=open;startFill=0;" parent="1" edge="1">
          <mxGeometry width="50" height="50" relative="1" as="geometry">
            <mxPoint x="420" y="486.73400000000004" as="sourcePoint" />
            <mxPoint x="470.16457142857143" y="486.72" as="targetPoint" />
          </mxGeometry>
        </mxCell>
        <mxCell id="BGpOXGxUT94xlGYrzpRG-78" value="checkup" style="edgeLabel;html=1;align=center;verticalAlign=middle;resizable=0;points=[];" parent="BGpOXGxUT94xlGYrzpRG-77" vertex="1" connectable="0">
          <mxGeometry x="0.4265" y="-2" relative="1" as="geometry">
            <mxPoint x="-12" y="-14" as="offset" />
          </mxGeometry>
        </mxCell>
        <mxCell id="BGpOXGxUT94xlGYrzpRG-79" value="&lt;b&gt;1&lt;/b&gt;" style="edgeLabel;html=1;align=center;verticalAlign=middle;resizable=0;points=[];fontSize=11;" parent="BGpOXGxUT94xlGYrzpRG-77" vertex="1" connectable="0">
          <mxGeometry x="-0.7448" y="-6" relative="1" as="geometry">
            <mxPoint x="36" y="3" as="offset" />
          </mxGeometry>
        </mxCell>
        <mxCell id="BGpOXGxUT94xlGYrzpRG-80" value="&lt;b&gt;1..*&lt;/b&gt;" style="edgeLabel;html=1;align=center;verticalAlign=middle;resizable=0;points=[];fontSize=11;" parent="BGpOXGxUT94xlGYrzpRG-77" vertex="1" connectable="0">
          <mxGeometry x="0.857" y="-8" relative="1" as="geometry">
            <mxPoint x="-37" y="1" as="offset" />
          </mxGeometry>
        </mxCell>
        <mxCell id="BGpOXGxUT94xlGYrzpRG-81" value="" style="endArrow=none;html=1;rounded=0;fontSize=11;strokeWidth=1;fillColor=#ffe6cc;strokeColor=#d79b00;" parent="1" edge="1">
          <mxGeometry width="50" height="50" relative="1" as="geometry">
            <mxPoint x="685" y="611" as="sourcePoint" />
            <mxPoint x="123" y="611" as="targetPoint" />
          </mxGeometry>
        </mxCell>
        <mxCell id="BGpOXGxUT94xlGYrzpRG-82" style="edgeStyle=none;rounded=0;orthogonalLoop=1;jettySize=auto;html=1;fontSize=11;startArrow=none;startFill=0;endArrow=none;endFill=0;strokeWidth=1;fillColor=#ffe6cc;strokeColor=#d79b00;exitX=0.75;exitY=0;exitDx=0;exitDy=0;" parent="1" edge="1">
          <mxGeometry relative="1" as="geometry">
            <mxPoint x="381.9999999999998" y="611" as="targetPoint" />
            <mxPoint x="381.5825" y="650" as="sourcePoint" />
          </mxGeometry>
        </mxCell>
        <mxCell id="BGpOXGxUT94xlGYrzpRG-83" style="edgeStyle=none;rounded=0;orthogonalLoop=1;jettySize=auto;html=1;fontSize=11;startArrow=none;startFill=0;endArrow=none;endFill=0;strokeWidth=1;fillColor=#ffe6cc;strokeColor=#d79b00;exitX=0.75;exitY=0;exitDx=0;exitDy=0;" parent="1" edge="1">
          <mxGeometry relative="1" as="geometry">
            <mxPoint x="220.99999999999977" y="611" as="targetPoint" />
            <mxPoint x="220.58249999999998" y="650" as="sourcePoint" />
          </mxGeometry>
        </mxCell>
        <mxCell id="BGpOXGxUT94xlGYrzpRG-84" style="edgeStyle=none;rounded=0;orthogonalLoop=1;jettySize=auto;html=1;fontSize=11;startArrow=none;startFill=0;endArrow=none;endFill=0;strokeWidth=1;fillColor=#ffe6cc;strokeColor=#d79b00;exitX=0.75;exitY=0;exitDx=0;exitDy=0;" parent="1" edge="1">
          <mxGeometry relative="1" as="geometry">
            <mxPoint x="684.9999999999998" y="611" as="targetPoint" />
            <mxPoint x="684.5825" y="650" as="sourcePoint" />
          </mxGeometry>
        </mxCell>
        <mxCell id="BGpOXGxUT94xlGYrzpRG-85" value="" style="endArrow=open;html=1;rounded=0;strokeWidth=1;entryX=0.061;entryY=0.998;entryDx=0;entryDy=0;fillColor=#dae8fc;strokeColor=#6c8ebf;entryPerimeter=0;endFill=0;exitX=1;exitY=0.185;exitDx=0;exitDy=0;exitPerimeter=0;" parent="1" source="BGpOXGxUT94xlGYrzpRG-17" target="BGpOXGxUT94xlGYrzpRG-57" edge="1">
          <mxGeometry width="50" height="50" relative="1" as="geometry">
            <mxPoint x="425" y="331" as="sourcePoint" />
            <mxPoint x="479.0799999999999" y="189.55" as="targetPoint" />
            <Array as="points">
              <mxPoint x="478" y="331" />
            </Array>
          </mxGeometry>
        </mxCell>
        <mxCell id="BGpOXGxUT94xlGYrzpRG-86" value="book" style="edgeLabel;html=1;align=center;verticalAlign=middle;resizable=0;points=[];labelBackgroundColor=none;" parent="BGpOXGxUT94xlGYrzpRG-85" vertex="1" connectable="0">
          <mxGeometry x="0.4265" y="-2" relative="1" as="geometry">
            <mxPoint x="-2" y="7" as="offset" />
          </mxGeometry>
        </mxCell>
        <mxCell id="BGpOXGxUT94xlGYrzpRG-87" value="&lt;b&gt;1&lt;/b&gt;" style="edgeLabel;html=1;align=center;verticalAlign=middle;resizable=0;points=[];fontSize=11;" parent="BGpOXGxUT94xlGYrzpRG-85" vertex="1" connectable="0">
          <mxGeometry x="-0.7448" y="-6" relative="1" as="geometry">
            <mxPoint x="-17" y="-16" as="offset" />
          </mxGeometry>
        </mxCell>
        <mxCell id="BGpOXGxUT94xlGYrzpRG-88" value="&lt;b&gt;1&lt;/b&gt;" style="edgeLabel;html=1;align=center;verticalAlign=middle;resizable=0;points=[];fontSize=11;" parent="BGpOXGxUT94xlGYrzpRG-85" vertex="1" connectable="0">
          <mxGeometry x="0.857" y="-8" relative="1" as="geometry">
            <mxPoint x="-16" y="-6" as="offset" />
          </mxGeometry>
        </mxCell>
        <mxCell id="BGpOXGxUT94xlGYrzpRG-89" value="" style="endArrow=open;html=1;rounded=0;strokeWidth=1;fillColor=#dae8fc;strokeColor=#6c8ebf;endFill=0;exitX=0.176;exitY=0.001;exitDx=0;exitDy=0;exitPerimeter=0;entryX=0.245;entryY=1.008;entryDx=0;entryDy=0;entryPerimeter=0;" parent="1" target="BGpOXGxUT94xlGYrzpRG-57" edge="1">
          <mxGeometry width="50" height="50" relative="1" as="geometry">
            <mxPoint x="500.336" y="408.13" as="sourcePoint" />
            <mxPoint x="499.61" y="189.60500000000002" as="targetPoint" />
          </mxGeometry>
        </mxCell>
        <mxCell id="BGpOXGxUT94xlGYrzpRG-90" value="set" style="edgeLabel;html=1;align=center;verticalAlign=middle;resizable=0;points=[];labelBackgroundColor=none;" parent="BGpOXGxUT94xlGYrzpRG-89" vertex="1" connectable="0">
          <mxGeometry x="0.4265" y="-2" relative="1" as="geometry">
            <mxPoint x="-2" y="32" as="offset" />
          </mxGeometry>
        </mxCell>
        <mxCell id="BGpOXGxUT94xlGYrzpRG-91" value="&lt;b&gt;1&lt;/b&gt;" style="edgeLabel;html=1;align=center;verticalAlign=middle;resizable=0;points=[];fontSize=11;" parent="BGpOXGxUT94xlGYrzpRG-89" vertex="1" connectable="0">
          <mxGeometry x="-0.7448" y="-6" relative="1" as="geometry">
            <mxPoint y="14" as="offset" />
          </mxGeometry>
        </mxCell>
        <mxCell id="BGpOXGxUT94xlGYrzpRG-92" value="&lt;b&gt;0..*&lt;/b&gt;" style="edgeLabel;html=1;align=center;verticalAlign=middle;resizable=0;points=[];fontSize=11;" parent="BGpOXGxUT94xlGYrzpRG-89" vertex="1" connectable="0">
          <mxGeometry x="0.857" y="-8" relative="1" as="geometry">
            <mxPoint x="5" y="-8" as="offset" />
          </mxGeometry>
        </mxCell>
        <mxCell id="BGpOXGxUT94xlGYrzpRG-93" value="" style="endArrow=none;html=1;rounded=0;strokeWidth=1;entryX=0.5;entryY=0;entryDx=0;entryDy=0;fillColor=#dae8fc;strokeColor=#6c8ebf;exitX=0;exitY=0.5;exitDx=0;exitDy=0;startArrow=open;startFill=0;" parent="1" edge="1">
          <mxGeometry width="50" height="50" relative="1" as="geometry">
            <mxPoint x="280" y="504" as="sourcePoint" />
            <mxPoint x="81" y="651" as="targetPoint" />
            <Array as="points">
              <mxPoint x="231" y="504" />
              <mxPoint x="231" y="598" />
              <mxPoint x="81" y="598" />
            </Array>
          </mxGeometry>
        </mxCell>
        <mxCell id="BGpOXGxUT94xlGYrzpRG-94" value="register" style="edgeLabel;html=1;align=center;verticalAlign=middle;resizable=0;points=[];" parent="BGpOXGxUT94xlGYrzpRG-93" vertex="1" connectable="0">
          <mxGeometry x="0.4265" y="-2" relative="1" as="geometry">
            <mxPoint x="65" y="-8" as="offset" />
          </mxGeometry>
        </mxCell>
        <mxCell id="BGpOXGxUT94xlGYrzpRG-95" value="&lt;b&gt;1&lt;/b&gt;..*" style="edgeLabel;html=1;align=center;verticalAlign=middle;resizable=0;points=[];fontSize=11;" parent="BGpOXGxUT94xlGYrzpRG-93" vertex="1" connectable="0">
          <mxGeometry x="-0.7448" y="-6" relative="1" as="geometry">
            <mxPoint x="30" y="-3" as="offset" />
          </mxGeometry>
        </mxCell>
        <mxCell id="BGpOXGxUT94xlGYrzpRG-96" value="&lt;b&gt;1&lt;/b&gt;" style="edgeLabel;html=1;align=center;verticalAlign=middle;resizable=0;points=[];fontSize=11;" parent="BGpOXGxUT94xlGYrzpRG-93" vertex="1" connectable="0">
          <mxGeometry x="0.857" y="-8" relative="1" as="geometry">
            <mxPoint y="16" as="offset" />
          </mxGeometry>
        </mxCell>
        <mxCell id="BGpOXGxUT94xlGYrzpRG-97" style="edgeStyle=none;rounded=0;orthogonalLoop=1;jettySize=auto;html=1;fontSize=11;startArrow=none;startFill=0;endArrow=none;endFill=0;strokeWidth=1;fillColor=#ffe6cc;strokeColor=#d79b00;exitX=0.75;exitY=0;exitDx=0;exitDy=0;" parent="1" edge="1">
          <mxGeometry relative="1" as="geometry">
            <mxPoint x="122.99999999999977" y="611" as="targetPoint" />
            <mxPoint x="122.58249999999998" y="650" as="sourcePoint" />
          </mxGeometry>
        </mxCell>
        <mxCell id="BGpOXGxUT94xlGYrzpRG-98" value="" style="endArrow=none;html=1;rounded=0;strokeWidth=1;fillColor=#dae8fc;strokeColor=#6c8ebf;entryX=0.579;entryY=0.009;entryDx=0;entryDy=0;entryPerimeter=0;endFill=0;startArrow=open;startFill=0;" parent="1" edge="1">
          <mxGeometry width="50" height="50" relative="1" as="geometry">
            <mxPoint x="280" y="514" as="sourcePoint" />
            <mxPoint x="241.02593000000002" y="652.0259999999998" as="targetPoint" />
            <Array as="points">
              <mxPoint x="241" y="514" />
              <mxPoint x="241" y="608" />
            </Array>
          </mxGeometry>
        </mxCell>
        <mxCell id="BGpOXGxUT94xlGYrzpRG-99" value="diagnose" style="edgeLabel;html=1;align=center;verticalAlign=middle;resizable=0;points=[];" parent="BGpOXGxUT94xlGYrzpRG-98" vertex="1" connectable="0">
          <mxGeometry x="0.4265" y="-2" relative="1" as="geometry">
            <mxPoint x="54" y="-10" as="offset" />
          </mxGeometry>
        </mxCell>
        <mxCell id="BGpOXGxUT94xlGYrzpRG-100" value="&lt;b&gt;1&lt;/b&gt;..*" style="edgeLabel;html=1;align=center;verticalAlign=middle;resizable=0;points=[];fontSize=11;" parent="BGpOXGxUT94xlGYrzpRG-98" vertex="1" connectable="0">
          <mxGeometry x="-0.7448" y="-6" relative="1" as="geometry">
            <mxPoint x="10" y="17" as="offset" />
          </mxGeometry>
        </mxCell>
        <mxCell id="BGpOXGxUT94xlGYrzpRG-101" value="&lt;b&gt;1&lt;/b&gt;" style="edgeLabel;html=1;align=center;verticalAlign=middle;resizable=0;points=[];fontSize=11;" parent="BGpOXGxUT94xlGYrzpRG-98" vertex="1" connectable="0">
          <mxGeometry x="0.857" y="-8" relative="1" as="geometry">
            <mxPoint y="3" as="offset" />
          </mxGeometry>
        </mxCell>
        <mxCell id="BGpOXGxUT94xlGYrzpRG-102" value="" style="endArrow=none;html=1;rounded=0;strokeWidth=1;fillColor=#dae8fc;strokeColor=#6c8ebf;entryX=0.5;entryY=0;entryDx=0;entryDy=0;startArrow=open;startFill=0;" parent="1" edge="1">
          <mxGeometry width="50" height="50" relative="1" as="geometry">
            <mxPoint x="627" y="851" as="sourcePoint" />
            <mxPoint x="531.835" y="851" as="targetPoint" />
            <Array as="points">
              <mxPoint x="627" y="839" />
              <mxPoint x="532" y="839" />
            </Array>
          </mxGeometry>
        </mxCell>
        <mxCell id="BGpOXGxUT94xlGYrzpRG-103" value="generate" style="edgeLabel;html=1;align=center;verticalAlign=middle;resizable=0;points=[];" parent="BGpOXGxUT94xlGYrzpRG-102" vertex="1" connectable="0">
          <mxGeometry x="0.4265" y="-2" relative="1" as="geometry">
            <mxPoint x="29" y="-7" as="offset" />
          </mxGeometry>
        </mxCell>
        <mxCell id="BGpOXGxUT94xlGYrzpRG-104" value="&lt;b&gt;1&lt;/b&gt;..*" style="edgeLabel;html=1;align=center;verticalAlign=middle;resizable=0;points=[];fontSize=11;" parent="BGpOXGxUT94xlGYrzpRG-102" vertex="1" connectable="0">
          <mxGeometry x="-0.6929" y="-4" relative="1" as="geometry">
            <mxPoint x="19" y="7" as="offset" />
          </mxGeometry>
        </mxCell>
        <mxCell id="BGpOXGxUT94xlGYrzpRG-105" value="&lt;b&gt;1&lt;/b&gt;" style="edgeLabel;html=1;align=center;verticalAlign=middle;resizable=0;points=[];fontSize=11;" parent="BGpOXGxUT94xlGYrzpRG-102" vertex="1" connectable="0">
          <mxGeometry x="0.7768" y="-7" relative="1" as="geometry">
            <mxPoint x="-8" y="11" as="offset" />
          </mxGeometry>
        </mxCell>
        <mxCell id="BGpOXGxUT94xlGYrzpRG-106" value="" style="endArrow=open;html=1;rounded=0;strokeWidth=1;fillColor=#dae8fc;strokeColor=#6c8ebf;entryX=0.5;entryY=0;entryDx=0;entryDy=0;endFill=0;exitX=0.347;exitY=1.015;exitDx=0;exitDy=0;exitPerimeter=0;" parent="1" source="BGpOXGxUT94xlGYrzpRG-66" edge="1">
          <mxGeometry width="50" height="50" relative="1" as="geometry">
            <mxPoint x="351" y="761" as="sourcePoint" />
            <mxPoint x="351" y="852" as="targetPoint" />
          </mxGeometry>
        </mxCell>
        <mxCell id="BGpOXGxUT94xlGYrzpRG-107" value="view" style="edgeLabel;align=center;verticalAlign=middle;resizable=0;points=[];labelBackgroundColor=none;html=1;" parent="BGpOXGxUT94xlGYrzpRG-106" vertex="1" connectable="0">
          <mxGeometry x="0.4265" y="-2" relative="1" as="geometry">
            <mxPoint x="17" y="-37" as="offset" />
          </mxGeometry>
        </mxCell>
        <mxCell id="BGpOXGxUT94xlGYrzpRG-108" value="&lt;b&gt;1&lt;/b&gt;" style="edgeLabel;html=1;align=center;verticalAlign=middle;resizable=0;points=[];fontSize=11;" parent="BGpOXGxUT94xlGYrzpRG-106" vertex="1" connectable="0">
          <mxGeometry x="-0.6929" y="-4" relative="1" as="geometry">
            <mxPoint x="10" y="-8" as="offset" />
          </mxGeometry>
        </mxCell>
        <mxCell id="BGpOXGxUT94xlGYrzpRG-109" value="&lt;b&gt;1..*&lt;/b&gt;" style="edgeLabel;html=1;align=center;verticalAlign=middle;resizable=0;points=[];fontSize=11;" parent="BGpOXGxUT94xlGYrzpRG-106" vertex="1" connectable="0">
          <mxGeometry x="0.7768" y="-7" relative="1" as="geometry">
            <mxPoint x="20" y="1" as="offset" />
          </mxGeometry>
        </mxCell>
        <mxCell id="BGpOXGxUT94xlGYrzpRG-110" value="" style="endArrow=open;html=1;rounded=0;strokeWidth=1;fillColor=#dae8fc;strokeColor=#6c8ebf;endFill=0;exitX=0.545;exitY=0.997;exitDx=0;exitDy=0;exitPerimeter=0;" parent="1" source="BGpOXGxUT94xlGYrzpRG-32" edge="1">
          <mxGeometry width="50" height="50" relative="1" as="geometry">
            <mxPoint x="748" y="541" as="sourcePoint" />
            <mxPoint x="410" y="1029" as="targetPoint" />
            <Array as="points">
              <mxPoint x="748" y="1044" />
              <mxPoint x="411" y="1044" />
            </Array>
          </mxGeometry>
        </mxCell>
        <mxCell id="BGpOXGxUT94xlGYrzpRG-111" value="prescribe" style="edgeLabel;html=1;align=center;verticalAlign=middle;resizable=0;points=[];" parent="BGpOXGxUT94xlGYrzpRG-110" vertex="1" connectable="0">
          <mxGeometry x="0.4265" y="-2" relative="1" as="geometry">
            <mxPoint x="-120" y="-7" as="offset" />
          </mxGeometry>
        </mxCell>
        <mxCell id="BGpOXGxUT94xlGYrzpRG-112" value="&lt;b&gt;1&lt;/b&gt;" style="edgeLabel;html=1;align=center;verticalAlign=middle;resizable=0;points=[];fontSize=11;" parent="BGpOXGxUT94xlGYrzpRG-110" vertex="1" connectable="0">
          <mxGeometry x="-0.6929" y="-4" relative="1" as="geometry">
            <mxPoint x="8" y="-123" as="offset" />
          </mxGeometry>
        </mxCell>
        <mxCell id="BGpOXGxUT94xlGYrzpRG-113" value="&lt;b&gt;1..*&lt;/b&gt;" style="edgeLabel;html=1;align=center;verticalAlign=middle;resizable=0;points=[];fontSize=11;" parent="BGpOXGxUT94xlGYrzpRG-110" vertex="1" connectable="0">
          <mxGeometry x="0.7768" y="-7" relative="1" as="geometry">
            <mxPoint x="-98" as="offset" />
          </mxGeometry>
        </mxCell>
        <mxCell id="BGpOXGxUT94xlGYrzpRG-114" value="" style="endArrow=open;html=1;rounded=0;strokeWidth=1;fillColor=#dae8fc;strokeColor=#6c8ebf;entryX=0.5;entryY=0;entryDx=0;entryDy=0;endFill=0;exitX=0.309;exitY=1.006;exitDx=0;exitDy=0;exitPerimeter=0;" parent="1" source="BGpOXGxUT94xlGYrzpRG-69" edge="1">
          <mxGeometry width="50" height="50" relative="1" as="geometry">
            <mxPoint x="518" y="751" as="sourcePoint" />
            <mxPoint x="676.5" y="851" as="targetPoint" />
            <Array as="points">
              <mxPoint x="497" y="788" />
              <mxPoint x="678" y="788" />
            </Array>
          </mxGeometry>
        </mxCell>
        <mxCell id="BGpOXGxUT94xlGYrzpRG-115" value="view" style="edgeLabel;html=1;align=center;verticalAlign=middle;resizable=0;points=[];" parent="BGpOXGxUT94xlGYrzpRG-114" vertex="1" connectable="0">
          <mxGeometry x="0.4265" y="-2" relative="1" as="geometry">
            <mxPoint x="-66" y="-12" as="offset" />
          </mxGeometry>
        </mxCell>
        <mxCell id="BGpOXGxUT94xlGYrzpRG-116" value="&lt;b&gt;1&lt;/b&gt;" style="edgeLabel;html=1;align=center;verticalAlign=middle;resizable=0;points=[];fontSize=11;" parent="BGpOXGxUT94xlGYrzpRG-114" vertex="1" connectable="0">
          <mxGeometry x="-0.6929" y="-4" relative="1" as="geometry">
            <mxPoint x="-4" y="-30" as="offset" />
          </mxGeometry>
        </mxCell>
        <mxCell id="BGpOXGxUT94xlGYrzpRG-117" value="&lt;b&gt;1..*&lt;/b&gt;" style="edgeLabel;html=1;align=center;verticalAlign=middle;resizable=0;points=[];fontSize=11;" parent="BGpOXGxUT94xlGYrzpRG-114" vertex="1" connectable="0">
          <mxGeometry x="0.7768" y="-7" relative="1" as="geometry">
            <mxPoint x="19" y="21" as="offset" />
          </mxGeometry>
        </mxCell>
        <mxCell id="BGpOXGxUT94xlGYrzpRG-118" value="" style="endArrow=open;html=1;rounded=0;strokeWidth=1;fillColor=#dae8fc;strokeColor=#6c8ebf;entryX=0.406;entryY=1.004;entryDx=0;entryDy=0;entryPerimeter=0;endFill=0;exitX=0.609;exitY=0.995;exitDx=0;exitDy=0;exitPerimeter=0;" parent="1" source="BGpOXGxUT94xlGYrzpRG-32" edge="1">
          <mxGeometry width="50" height="50" relative="1" as="geometry">
            <mxPoint x="758" y="541" as="sourcePoint" />
            <mxPoint x="210.99800000000005" y="1025.188" as="targetPoint" />
            <Array as="points">
              <mxPoint x="758" y="1060" />
              <mxPoint x="211" y="1060" />
            </Array>
          </mxGeometry>
        </mxCell>
        <mxCell id="BGpOXGxUT94xlGYrzpRG-119" value="send" style="edgeLabel;html=1;align=center;verticalAlign=middle;resizable=0;points=[];" parent="BGpOXGxUT94xlGYrzpRG-118" vertex="1" connectable="0">
          <mxGeometry x="0.4265" y="-2" relative="1" as="geometry">
            <mxPoint x="23" y="9" as="offset" />
          </mxGeometry>
        </mxCell>
        <mxCell id="BGpOXGxUT94xlGYrzpRG-120" value="&lt;b&gt;1&lt;/b&gt;" style="edgeLabel;html=1;align=center;verticalAlign=middle;resizable=0;points=[];fontSize=11;" parent="BGpOXGxUT94xlGYrzpRG-118" vertex="1" connectable="0">
          <mxGeometry x="-0.6929" y="-4" relative="1" as="geometry">
            <mxPoint x="9" y="-162" as="offset" />
          </mxGeometry>
        </mxCell>
        <mxCell id="BGpOXGxUT94xlGYrzpRG-121" value="&lt;b&gt;1..*&lt;/b&gt;" style="edgeLabel;html=1;align=center;verticalAlign=middle;resizable=0;points=[];fontSize=11;" parent="BGpOXGxUT94xlGYrzpRG-118" vertex="1" connectable="0">
          <mxGeometry x="0.7768" y="-7" relative="1" as="geometry">
            <mxPoint x="-101" y="-17" as="offset" />
          </mxGeometry>
        </mxCell>
        <mxCell id="BGpOXGxUT94xlGYrzpRG-122" value="" style="endArrow=open;html=1;rounded=0;strokeWidth=1;fillColor=#dae8fc;strokeColor=#6c8ebf;entryX=0.5;entryY=0;entryDx=0;entryDy=0;endFill=0;exitX=0.652;exitY=1;exitDx=0;exitDy=0;exitPerimeter=0;" parent="1" source="BGpOXGxUT94xlGYrzpRG-63" edge="1">
          <mxGeometry width="50" height="50" relative="1" as="geometry">
            <mxPoint x="241" y="771" as="sourcePoint" />
            <mxPoint x="241" y="852" as="targetPoint" />
          </mxGeometry>
        </mxCell>
        <mxCell id="BGpOXGxUT94xlGYrzpRG-123" value="view" style="edgeLabel;html=1;align=center;verticalAlign=middle;resizable=0;points=[];labelBackgroundColor=none;" parent="BGpOXGxUT94xlGYrzpRG-122" vertex="1" connectable="0">
          <mxGeometry x="0.4265" y="-2" relative="1" as="geometry">
            <mxPoint x="3" y="-18" as="offset" />
          </mxGeometry>
        </mxCell>
        <mxCell id="BGpOXGxUT94xlGYrzpRG-124" value="&lt;b&gt;1&lt;/b&gt;" style="edgeLabel;html=1;align=center;verticalAlign=middle;resizable=0;points=[];fontSize=11;" parent="BGpOXGxUT94xlGYrzpRG-122" vertex="1" connectable="0">
          <mxGeometry x="-0.6929" y="-4" relative="1" as="geometry">
            <mxPoint x="10" y="-6" as="offset" />
          </mxGeometry>
        </mxCell>
        <mxCell id="BGpOXGxUT94xlGYrzpRG-125" value="&lt;b&gt;1..*&lt;/b&gt;" style="edgeLabel;html=1;align=center;verticalAlign=middle;resizable=0;points=[];fontSize=11;" parent="BGpOXGxUT94xlGYrzpRG-122" vertex="1" connectable="0">
          <mxGeometry x="0.7768" y="-7" relative="1" as="geometry">
            <mxPoint x="20" y="1" as="offset" />
          </mxGeometry>
        </mxCell>
        <mxCell id="BGpOXGxUT94xlGYrzpRG-126" value="" style="endArrow=open;html=1;rounded=0;strokeWidth=1;fillColor=#dae8fc;strokeColor=#6c8ebf;entryX=0.5;entryY=0;entryDx=0;entryDy=0;exitX=0.09;exitY=0.984;exitDx=0;exitDy=0;exitPerimeter=0;endFill=0;" parent="1" source="BGpOXGxUT94xlGYrzpRG-63" edge="1">
          <mxGeometry width="50" height="50" relative="1" as="geometry">
            <mxPoint x="172.04030000000012" y="771.0159999999998" as="sourcePoint" />
            <mxPoint x="77" y="853" as="targetPoint" />
            <Array as="points">
              <mxPoint x="172" y="785" />
              <mxPoint x="77" y="785" />
            </Array>
          </mxGeometry>
        </mxCell>
        <mxCell id="BGpOXGxUT94xlGYrzpRG-127" value="send" style="edgeLabel;html=1;align=center;verticalAlign=middle;resizable=0;points=[];" parent="BGpOXGxUT94xlGYrzpRG-126" vertex="1" connectable="0">
          <mxGeometry x="0.4265" y="-2" relative="1" as="geometry">
            <mxPoint x="-13" y="17" as="offset" />
          </mxGeometry>
        </mxCell>
        <mxCell id="BGpOXGxUT94xlGYrzpRG-128" value="&lt;b&gt;1&lt;/b&gt;" style="edgeLabel;html=1;align=center;verticalAlign=middle;resizable=0;points=[];fontSize=11;" parent="BGpOXGxUT94xlGYrzpRG-126" vertex="1" connectable="0">
          <mxGeometry x="-0.6929" y="-4" relative="1" as="geometry">
            <mxPoint x="11" y="-12" as="offset" />
          </mxGeometry>
        </mxCell>
        <mxCell id="BGpOXGxUT94xlGYrzpRG-129" value="&lt;b&gt;1..*&lt;/b&gt;" style="edgeLabel;html=1;align=center;verticalAlign=middle;resizable=0;points=[];fontSize=11;labelBackgroundColor=none;" parent="BGpOXGxUT94xlGYrzpRG-126" vertex="1" connectable="0">
          <mxGeometry x="0.7768" y="-7" relative="1" as="geometry">
            <mxPoint x="-6" y="12" as="offset" />
          </mxGeometry>
        </mxCell>
        <mxCell id="BGpOXGxUT94xlGYrzpRG-130" value="" style="endArrow=open;html=1;rounded=0;strokeWidth=1;fillColor=#dae8fc;strokeColor=#6c8ebf;entryX=0.821;entryY=0.002;entryDx=0;entryDy=0;entryPerimeter=0;endFill=0;exitX=0.515;exitY=1;exitDx=0;exitDy=0;exitPerimeter=0;" parent="1" source="BGpOXGxUT94xlGYrzpRG-60" edge="1">
          <mxGeometry width="50" height="50" relative="1" as="geometry">
            <mxPoint x="667" y="761" as="sourcePoint" />
            <mxPoint x="281.1930000000002" y="851.348" as="targetPoint" />
            <Array as="points">
              <mxPoint x="667" y="824" />
              <mxPoint x="281" y="824" />
            </Array>
          </mxGeometry>
        </mxCell>
        <mxCell id="BGpOXGxUT94xlGYrzpRG-131" value="view" style="edgeLabel;html=1;align=center;verticalAlign=middle;resizable=0;points=[];" parent="BGpOXGxUT94xlGYrzpRG-130" vertex="1" connectable="0">
          <mxGeometry x="0.4265" y="-2" relative="1" as="geometry">
            <mxPoint x="86" y="11" as="offset" />
          </mxGeometry>
        </mxCell>
        <mxCell id="BGpOXGxUT94xlGYrzpRG-132" value="&lt;b&gt;1&lt;/b&gt;" style="edgeLabel;html=1;align=center;verticalAlign=middle;resizable=0;points=[];fontSize=11;" parent="BGpOXGxUT94xlGYrzpRG-130" vertex="1" connectable="0">
          <mxGeometry x="-0.6929" y="-4" relative="1" as="geometry">
            <mxPoint x="15" y="-51" as="offset" />
          </mxGeometry>
        </mxCell>
        <mxCell id="BGpOXGxUT94xlGYrzpRG-133" value="&lt;b&gt;1..*&lt;/b&gt;" style="edgeLabel;html=1;align=center;verticalAlign=middle;resizable=0;points=[];fontSize=11;" parent="BGpOXGxUT94xlGYrzpRG-130" vertex="1" connectable="0">
          <mxGeometry x="0.7768" y="-7" relative="1" as="geometry">
            <mxPoint x="-14" y="25" as="offset" />
          </mxGeometry>
        </mxCell>
        <mxCell id="BGpOXGxUT94xlGYrzpRG-134" value="" style="endArrow=open;html=1;rounded=0;strokeWidth=1;fillColor=#dae8fc;strokeColor=#6c8ebf;endFill=0;exitX=0.697;exitY=0.999;exitDx=0;exitDy=0;exitPerimeter=0;" parent="1" source="BGpOXGxUT94xlGYrzpRG-32" edge="1">
          <mxGeometry width="50" height="50" relative="1" as="geometry">
            <mxPoint x="772" y="541" as="sourcePoint" />
            <mxPoint x="53" y="1025" as="targetPoint" />
            <Array as="points">
              <mxPoint x="772" y="1076" />
              <mxPoint x="53" y="1071" />
            </Array>
          </mxGeometry>
        </mxCell>
        <mxCell id="BGpOXGxUT94xlGYrzpRG-135" value="view" style="edgeLabel;html=1;align=center;verticalAlign=middle;resizable=0;points=[];" parent="BGpOXGxUT94xlGYrzpRG-134" vertex="1" connectable="0">
          <mxGeometry x="0.4265" y="-2" relative="1" as="geometry">
            <mxPoint x="22" y="10" as="offset" />
          </mxGeometry>
        </mxCell>
        <mxCell id="BGpOXGxUT94xlGYrzpRG-136" value="&lt;b&gt;1&lt;/b&gt;" style="edgeLabel;html=1;align=center;verticalAlign=middle;resizable=0;points=[];fontSize=11;" parent="BGpOXGxUT94xlGYrzpRG-134" vertex="1" connectable="0">
          <mxGeometry x="-0.6929" y="-4" relative="1" as="geometry">
            <mxPoint x="8" y="-193" as="offset" />
          </mxGeometry>
        </mxCell>
        <mxCell id="BGpOXGxUT94xlGYrzpRG-137" value="&lt;b&gt;1..*&lt;/b&gt;" style="edgeLabel;html=1;align=center;verticalAlign=middle;resizable=0;points=[];fontSize=11;" parent="BGpOXGxUT94xlGYrzpRG-134" vertex="1" connectable="0">
          <mxGeometry x="0.7768" y="-7" relative="1" as="geometry">
            <mxPoint x="-116" y="-31" as="offset" />
          </mxGeometry>
        </mxCell>
        <mxCell id="BGpOXGxUT94xlGYrzpRG-138" value="" style="endArrow=open;html=1;rounded=0;strokeWidth=1;fillColor=#dae8fc;strokeColor=#6c8ebf;endFill=0;entryX=0.606;entryY=0.974;entryDx=0;entryDy=0;entryPerimeter=0;exitX=0.384;exitY=0.995;exitDx=0;exitDy=0;exitPerimeter=0;" parent="1" source="BGpOXGxUT94xlGYrzpRG-32" target="BGpOXGxUT94xlGYrzpRG-18" edge="1">
          <mxGeometry width="50" height="50" relative="1" as="geometry">
            <mxPoint x="722" y="541" as="sourcePoint" />
            <mxPoint x="365" y="531" as="targetPoint" />
            <Array as="points">
              <mxPoint x="722" y="591" />
              <mxPoint x="365" y="591" />
            </Array>
          </mxGeometry>
        </mxCell>
        <mxCell id="BGpOXGxUT94xlGYrzpRG-139" value="examine " style="edgeLabel;html=1;align=center;verticalAlign=middle;resizable=0;points=[];" parent="BGpOXGxUT94xlGYrzpRG-138" vertex="1" connectable="0">
          <mxGeometry x="0.4265" y="-2" relative="1" as="geometry">
            <mxPoint x="92" y="-7" as="offset" />
          </mxGeometry>
        </mxCell>
        <mxCell id="BGpOXGxUT94xlGYrzpRG-140" value="&lt;b&gt;1&lt;/b&gt;" style="edgeLabel;html=1;align=center;verticalAlign=middle;resizable=0;points=[];fontSize=11;" parent="BGpOXGxUT94xlGYrzpRG-138" vertex="1" connectable="0">
          <mxGeometry x="-0.6929" y="-4" relative="1" as="geometry">
            <mxPoint x="21" y="-43" as="offset" />
          </mxGeometry>
        </mxCell>
        <mxCell id="BGpOXGxUT94xlGYrzpRG-141" value="&lt;b&gt;1..*&lt;/b&gt;" style="edgeLabel;html=1;align=center;verticalAlign=middle;resizable=0;points=[];fontSize=11;" parent="BGpOXGxUT94xlGYrzpRG-138" vertex="1" connectable="0">
          <mxGeometry x="0.7768" y="-7" relative="1" as="geometry">
            <mxPoint x="6" y="-43" as="offset" />
          </mxGeometry>
        </mxCell>
        <mxCell id="BGpOXGxUT94xlGYrzpRG-142" value="" style="endArrow=open;html=1;rounded=0;strokeWidth=1;fillColor=#dae8fc;strokeColor=#6c8ebf;entryX=1;entryY=0.822;entryDx=0;entryDy=0;entryPerimeter=0;exitX=0.118;exitY=1.005;exitDx=0;exitDy=0;exitPerimeter=0;endFill=0;" parent="1" source="BGpOXGxUT94xlGYrzpRG-29" edge="1">
          <mxGeometry width="50" height="50" relative="1" as="geometry">
            <mxPoint x="488.91314285714293" y="538.24" as="sourcePoint" />
            <mxPoint x="172" y="381.096" as="targetPoint" />
            <Array as="points">
              <mxPoint x="489" y="551" />
              <mxPoint x="189" y="551" />
              <mxPoint x="189" y="381" />
            </Array>
          </mxGeometry>
        </mxCell>
        <mxCell id="BGpOXGxUT94xlGYrzpRG-143" value="perform" style="edgeLabel;html=1;align=center;verticalAlign=middle;resizable=0;points=[];labelBackgroundColor=none;" parent="BGpOXGxUT94xlGYrzpRG-142" vertex="1" connectable="0">
          <mxGeometry x="0.4265" y="-2" relative="1" as="geometry">
            <mxPoint x="19" y="-90" as="offset" />
          </mxGeometry>
        </mxCell>
        <mxCell id="BGpOXGxUT94xlGYrzpRG-144" value="&lt;b&gt;1&lt;/b&gt;" style="edgeLabel;html=1;align=center;verticalAlign=middle;resizable=0;points=[];fontSize=11;" parent="BGpOXGxUT94xlGYrzpRG-142" vertex="1" connectable="0">
          <mxGeometry x="-0.6929" y="-4" relative="1" as="geometry">
            <mxPoint x="60" y="-8" as="offset" />
          </mxGeometry>
        </mxCell>
        <mxCell id="BGpOXGxUT94xlGYrzpRG-145" value="&lt;b&gt;1..*&lt;/b&gt;" style="edgeLabel;html=1;align=center;verticalAlign=middle;resizable=0;points=[];fontSize=11;" parent="BGpOXGxUT94xlGYrzpRG-142" vertex="1" connectable="0">
          <mxGeometry x="0.7768" y="-7" relative="1" as="geometry">
            <mxPoint x="-13" y="-52" as="offset" />
          </mxGeometry>
        </mxCell>
        <mxCell id="BGpOXGxUT94xlGYrzpRG-146" value="" style="endArrow=open;html=1;rounded=0;strokeWidth=1;fillColor=#dae8fc;strokeColor=#6c8ebf;entryX=0.999;entryY=0.882;entryDx=0;entryDy=0;entryPerimeter=0;exitX=0.228;exitY=1.009;exitDx=0;exitDy=0;exitPerimeter=0;endFill=0;" parent="1" source="BGpOXGxUT94xlGYrzpRG-29" edge="1">
          <mxGeometry width="50" height="50" relative="1" as="geometry">
            <mxPoint x="507.02857142857147" y="540.0000000000001" as="sourcePoint" />
            <mxPoint x="151.85899999999992" y="573.0079999999999" as="targetPoint" />
            <Array as="points">
              <mxPoint x="507" y="573" />
            </Array>
          </mxGeometry>
        </mxCell>
        <mxCell id="BGpOXGxUT94xlGYrzpRG-147" value="perform" style="edgeLabel;html=1;align=center;verticalAlign=middle;resizable=0;points=[];" parent="BGpOXGxUT94xlGYrzpRG-146" vertex="1" connectable="0">
          <mxGeometry x="0.4265" y="-2" relative="1" as="geometry">
            <mxPoint x="59" y="-7" as="offset" />
          </mxGeometry>
        </mxCell>
        <mxCell id="BGpOXGxUT94xlGYrzpRG-148" value="&lt;b&gt;1&lt;/b&gt;" style="edgeLabel;html=1;align=center;verticalAlign=middle;resizable=0;points=[];fontSize=11;" parent="BGpOXGxUT94xlGYrzpRG-146" vertex="1" connectable="0">
          <mxGeometry x="-0.6929" y="-4" relative="1" as="geometry">
            <mxPoint x="25" y="-31" as="offset" />
          </mxGeometry>
        </mxCell>
        <mxCell id="BGpOXGxUT94xlGYrzpRG-149" value="&lt;b&gt;1..*&lt;/b&gt;" style="edgeLabel;html=1;align=center;verticalAlign=middle;resizable=0;points=[];fontSize=11;" parent="BGpOXGxUT94xlGYrzpRG-146" vertex="1" connectable="0">
          <mxGeometry x="0.7768" y="-7" relative="1" as="geometry">
            <mxPoint x="-32" y="-5" as="offset" />
          </mxGeometry>
        </mxCell>
        <mxCell id="BGpOXGxUT94xlGYrzpRG-150" value="" style="endArrow=open;html=1;rounded=0;strokeWidth=1;fillColor=#dae8fc;strokeColor=#6c8ebf;endFill=0;entryX=0.917;entryY=1.03;entryDx=0;entryDy=0;entryPerimeter=0;exitX=-0.001;exitY=0.822;exitDx=0;exitDy=0;exitPerimeter=0;" parent="1" target="G7fRazRPBhIYGSNJgmAT-4" edge="1">
          <mxGeometry width="50" height="50" relative="1" as="geometry">
            <mxPoint x="469.83900000000006" y="448.79600000000005" as="sourcePoint" />
            <mxPoint x="327" y="224" as="targetPoint" />
            <Array as="points">
              <mxPoint x="440" y="449" />
              <mxPoint x="440" y="242" />
              <mxPoint x="363" y="242" />
              <mxPoint x="327" y="242" />
            </Array>
          </mxGeometry>
        </mxCell>
        <mxCell id="BGpOXGxUT94xlGYrzpRG-151" value="perform" style="edgeLabel;html=1;align=center;verticalAlign=middle;resizable=0;points=[];labelBackgroundColor=none;" parent="BGpOXGxUT94xlGYrzpRG-150" vertex="1" connectable="0">
          <mxGeometry x="0.4265" y="-2" relative="1" as="geometry">
            <mxPoint x="-35" y="-7" as="offset" />
          </mxGeometry>
        </mxCell>
        <mxCell id="BGpOXGxUT94xlGYrzpRG-152" value="&lt;b&gt;1&lt;/b&gt;" style="edgeLabel;html=1;align=center;verticalAlign=middle;resizable=0;points=[];fontSize=11;" parent="BGpOXGxUT94xlGYrzpRG-150" vertex="1" connectable="0">
          <mxGeometry x="-0.7448" y="-6" relative="1" as="geometry">
            <mxPoint x="18" y="11" as="offset" />
          </mxGeometry>
        </mxCell>
        <mxCell id="BGpOXGxUT94xlGYrzpRG-153" value="&lt;b&gt;1..*&lt;/b&gt;" style="edgeLabel;html=1;align=center;verticalAlign=middle;resizable=0;points=[];fontSize=11;" parent="BGpOXGxUT94xlGYrzpRG-150" vertex="1" connectable="0">
          <mxGeometry x="0.857" y="-8" relative="1" as="geometry">
            <mxPoint x="4" y="-17" as="offset" />
          </mxGeometry>
        </mxCell>
        <mxCell id="BGpOXGxUT94xlGYrzpRG-154" value="" style="endArrow=open;html=1;rounded=0;strokeWidth=1;fillColor=#dae8fc;strokeColor=#6c8ebf;exitX=0.094;exitY=0.994;exitDx=0;exitDy=0;exitPerimeter=0;endFill=0;" parent="1" source="BGpOXGxUT94xlGYrzpRG-18" edge="1">
          <mxGeometry width="50" height="50" relative="1" as="geometry">
            <mxPoint x="293.02" y="530.992" as="sourcePoint" />
            <mxPoint x="107" y="851" as="targetPoint" />
            <Array as="points">
              <mxPoint x="293" y="641" />
              <mxPoint x="293" y="801" />
              <mxPoint x="107" y="801" />
            </Array>
          </mxGeometry>
        </mxCell>
        <mxCell id="BGpOXGxUT94xlGYrzpRG-155" value="has" style="edgeLabel;html=1;align=center;verticalAlign=middle;resizable=0;points=[];" parent="BGpOXGxUT94xlGYrzpRG-154" vertex="1" connectable="0">
          <mxGeometry x="0.4265" y="-2" relative="1" as="geometry">
            <mxPoint x="-7" y="-7" as="offset" />
          </mxGeometry>
        </mxCell>
        <mxCell id="BGpOXGxUT94xlGYrzpRG-156" value="&lt;b&gt;1&lt;/b&gt;" style="edgeLabel;html=1;align=center;verticalAlign=middle;resizable=0;points=[];fontSize=11;" parent="BGpOXGxUT94xlGYrzpRG-154" vertex="1" connectable="0">
          <mxGeometry x="-0.7448" y="-6" relative="1" as="geometry">
            <mxPoint x="-1" y="-56" as="offset" />
          </mxGeometry>
        </mxCell>
        <mxCell id="BGpOXGxUT94xlGYrzpRG-157" value="&lt;b&gt;1&lt;/b&gt;..*" style="edgeLabel;html=1;align=center;verticalAlign=middle;resizable=0;points=[];fontSize=11;labelBackgroundColor=none;" parent="BGpOXGxUT94xlGYrzpRG-154" vertex="1" connectable="0">
          <mxGeometry x="0.857" y="-8" relative="1" as="geometry">
            <mxPoint x="-7" y="29" as="offset" />
          </mxGeometry>
        </mxCell>
        <mxCell id="8jTT2GH3MbvdYo8_2JYC-5" value="" style="endArrow=open;html=1;rounded=0;strokeWidth=1;fillColor=#dae8fc;strokeColor=#6c8ebf;entryX=0.95;entryY=0.005;entryDx=0;entryDy=0;entryPerimeter=0;endFill=0;exitX=0.327;exitY=1.019;exitDx=0;exitDy=0;exitPerimeter=0;" parent="1" source="BGpOXGxUT94xlGYrzpRG-60" target="BGpOXGxUT94xlGYrzpRG-4" edge="1">
          <mxGeometry width="50" height="50" relative="1" as="geometry">
            <mxPoint x="677" y="771" as="sourcePoint" />
            <mxPoint x="291.1930000000002" y="861.348" as="targetPoint" />
            <Array as="points">
              <mxPoint x="643" y="818" />
              <mxPoint x="137" y="818" />
            </Array>
          </mxGeometry>
        </mxCell>
        <mxCell id="8jTT2GH3MbvdYo8_2JYC-6" value="send" style="edgeLabel;html=1;align=center;verticalAlign=middle;resizable=0;points=[];" parent="8jTT2GH3MbvdYo8_2JYC-5" vertex="1" connectable="0">
          <mxGeometry x="0.4265" y="-2" relative="1" as="geometry">
            <mxPoint x="204" y="-10" as="offset" />
          </mxGeometry>
        </mxCell>
        <mxCell id="8jTT2GH3MbvdYo8_2JYC-7" value="&lt;b&gt;1&lt;/b&gt;" style="edgeLabel;html=1;align=center;verticalAlign=middle;resizable=0;points=[];fontSize=11;" parent="8jTT2GH3MbvdYo8_2JYC-5" vertex="1" connectable="0">
          <mxGeometry x="-0.6929" y="-4" relative="1" as="geometry">
            <mxPoint x="31" y="-44" as="offset" />
          </mxGeometry>
        </mxCell>
        <mxCell id="8jTT2GH3MbvdYo8_2JYC-8" value="&lt;b&gt;1..*&lt;/b&gt;" style="edgeLabel;html=1;align=center;verticalAlign=middle;resizable=0;points=[];fontSize=11;labelBackgroundColor=none;" parent="8jTT2GH3MbvdYo8_2JYC-5" vertex="1" connectable="0">
          <mxGeometry x="0.7768" y="-7" relative="1" as="geometry">
            <mxPoint x="-46" y="33" as="offset" />
          </mxGeometry>
        </mxCell>
        <mxCell id="8jTT2GH3MbvdYo8_2JYC-9" value="" style="endArrow=diamondThin;html=1;rounded=0;strokeWidth=1;fillColor=#dae8fc;strokeColor=#6c8ebf;entryX=0.75;entryY=0;entryDx=0;entryDy=0;endFill=1;exitX=0.873;exitY=1.004;exitDx=0;exitDy=0;exitPerimeter=0;" parent="1" source="BGpOXGxUT94xlGYrzpRG-18" edge="1">
          <mxGeometry width="50" height="50" relative="1" as="geometry">
            <mxPoint x="402.31999999999994" y="532.28" as="sourcePoint" />
            <mxPoint x="410" y="851" as="targetPoint" />
            <Array as="points">
              <mxPoint x="402" y="629" />
              <mxPoint x="449" y="629" />
              <mxPoint x="449" y="775" />
              <mxPoint x="410" y="775" />
            </Array>
          </mxGeometry>
        </mxCell>
        <mxCell id="8jTT2GH3MbvdYo8_2JYC-10" value="has" style="edgeLabel;html=1;align=center;verticalAlign=middle;resizable=0;points=[];" parent="8jTT2GH3MbvdYo8_2JYC-9" vertex="1" connectable="0">
          <mxGeometry x="0.4265" y="-2" relative="1" as="geometry">
            <mxPoint x="-21" y="9" as="offset" />
          </mxGeometry>
        </mxCell>
        <mxCell id="8jTT2GH3MbvdYo8_2JYC-11" value="&lt;b&gt;1&lt;/b&gt;" style="edgeLabel;html=1;align=center;verticalAlign=middle;resizable=0;points=[];fontSize=11;" parent="8jTT2GH3MbvdYo8_2JYC-9" vertex="1" connectable="0">
          <mxGeometry x="-0.6929" y="-4" relative="1" as="geometry">
            <mxPoint x="10" y="-54" as="offset" />
          </mxGeometry>
        </mxCell>
        <mxCell id="8jTT2GH3MbvdYo8_2JYC-12" value="&lt;font style=&quot;font-size: 12px;&quot;&gt;&lt;b&gt;0..*&lt;/b&gt;&lt;/font&gt;" style="edgeLabel;html=1;align=center;verticalAlign=middle;resizable=0;points=[];fontSize=11;" parent="8jTT2GH3MbvdYo8_2JYC-9" vertex="1" connectable="0">
          <mxGeometry x="0.7768" y="-7" relative="1" as="geometry">
            <mxPoint x="20" y="36" as="offset" />
          </mxGeometry>
        </mxCell>
        <mxCell id="8jTT2GH3MbvdYo8_2JYC-13" style="edgeStyle=none;rounded=0;orthogonalLoop=1;jettySize=auto;html=1;fontSize=11;startArrow=none;startFill=0;endArrow=none;endFill=0;strokeWidth=1;fillColor=#ffe6cc;strokeColor=#d79b00;" parent="1" edge="1">
          <mxGeometry relative="1" as="geometry">
            <mxPoint x="594" y="611" as="targetPoint" />
            <mxPoint x="519" y="850" as="sourcePoint" />
            <Array as="points">
              <mxPoint x="519" y="765" />
              <mxPoint x="594" y="765" />
            </Array>
          </mxGeometry>
        </mxCell>
        <mxCell id="LYAqf2hi0SgUpa3Ll4Bo-1" value="Bed" style="swimlane;fontStyle=1;align=center;verticalAlign=top;childLayout=stackLayout;horizontal=1;startSize=26;horizontalStack=0;resizeParent=1;resizeParentMax=0;resizeLast=0;collapsible=1;marginBottom=0;strokeWidth=1;spacingTop=0;fontSize=12;strokeColor=#6c8ebf;fillColor=#dae8fc;" parent="1" vertex="1">
          <mxGeometry x="350" y="36" width="110" height="130" as="geometry" />
        </mxCell>
        <mxCell id="LYAqf2hi0SgUpa3Ll4Bo-2" value="- roomNo. : int&#xa;- bulidingID :String&#xa;- bedNo. : int&#xa;- user : User" style="text;strokeColor=#6C8EBF;fillColor=none;align=left;verticalAlign=top;spacingLeft=4;spacingRight=4;overflow=hidden;rotatable=0;points=[[0,0.5],[1,0.5]];portConstraint=eastwest;strokeWidth=1;spacingTop=0;fontSize=12;" parent="LYAqf2hi0SgUpa3Ll4Bo-1" vertex="1">
          <mxGeometry y="26" width="110" height="66" as="geometry" />
        </mxCell>
        <mxCell id="G7fRazRPBhIYGSNJgmAT-5" value="+ getter() : String&#xa;+ setter() : void" style="text;strokeColor=#6C8EBF;fillColor=none;align=left;verticalAlign=top;spacingLeft=4;spacingRight=4;overflow=hidden;rotatable=0;points=[[0,0.5],[1,0.5]];portConstraint=eastwest;strokeWidth=1;spacingTop=0;fontSize=12;" parent="LYAqf2hi0SgUpa3Ll4Bo-1" vertex="1">
          <mxGeometry y="92" width="110" height="38" as="geometry" />
        </mxCell>
        <mxCell id="LYAqf2hi0SgUpa3Ll4Bo-3" value="" style="endArrow=open;html=1;rounded=0;strokeWidth=1;fillColor=#dae8fc;strokeColor=#6c8ebf;endFill=0;exitX=-0.001;exitY=0.163;exitDx=0;exitDy=0;exitPerimeter=0;entryX=0.756;entryY=0.993;entryDx=0;entryDy=0;entryPerimeter=0;" parent="1" source="BGpOXGxUT94xlGYrzpRG-27" target="G7fRazRPBhIYGSNJgmAT-5" edge="1">
          <mxGeometry width="50" height="50" relative="1" as="geometry">
            <mxPoint x="300" y="281" as="sourcePoint" />
            <mxPoint x="433" y="155" as="targetPoint" />
            <Array as="points">
              <mxPoint x="457" y="428" />
              <mxPoint x="457" y="354" />
              <mxPoint x="457" y="195" />
              <mxPoint x="433" y="195" />
            </Array>
          </mxGeometry>
        </mxCell>
        <mxCell id="LYAqf2hi0SgUpa3Ll4Bo-4" value="allocate" style="edgeLabel;html=1;align=center;verticalAlign=middle;resizable=0;points=[];labelBackgroundColor=none;" parent="LYAqf2hi0SgUpa3Ll4Bo-3" vertex="1" connectable="0">
          <mxGeometry x="0.4265" y="-2" relative="1" as="geometry">
            <mxPoint x="-13" y="-11" as="offset" />
          </mxGeometry>
        </mxCell>
        <mxCell id="LYAqf2hi0SgUpa3Ll4Bo-5" value="&lt;b&gt;1&lt;/b&gt;" style="edgeLabel;html=1;align=center;verticalAlign=middle;resizable=0;points=[];" parent="LYAqf2hi0SgUpa3Ll4Bo-3" vertex="1" connectable="0">
          <mxGeometry x="-0.4229" y="-2" relative="1" as="geometry">
            <mxPoint x="4" y="65" as="offset" />
          </mxGeometry>
        </mxCell>
        <mxCell id="LYAqf2hi0SgUpa3Ll4Bo-6" value="&lt;font style=&quot;font-size: 11px;&quot;&gt;&lt;b&gt;0..*&lt;/b&gt;&lt;/font&gt;" style="edgeLabel;html=1;align=center;verticalAlign=middle;resizable=0;points=[];" parent="LYAqf2hi0SgUpa3Ll4Bo-3" vertex="1" connectable="0">
          <mxGeometry x="0.5838" y="-3" relative="1" as="geometry">
            <mxPoint x="-39" y="-28" as="offset" />
          </mxGeometry>
        </mxCell>
        <mxCell id="LYAqf2hi0SgUpa3Ll4Bo-7" value="" style="endArrow=open;html=1;rounded=0;strokeWidth=1;fillColor=#dae8fc;strokeColor=#6c8ebf;endFill=0;exitX=0.879;exitY=0.005;exitDx=0;exitDy=0;exitPerimeter=0;entryX=0.482;entryY=1.034;entryDx=0;entryDy=0;entryPerimeter=0;" parent="1" source="BGpOXGxUT94xlGYrzpRG-16" target="G7fRazRPBhIYGSNJgmAT-5" edge="1">
          <mxGeometry width="50" height="50" relative="1" as="geometry">
            <mxPoint x="403" y="272" as="sourcePoint" />
            <mxPoint x="403" y="147" as="targetPoint" />
          </mxGeometry>
        </mxCell>
        <mxCell id="LYAqf2hi0SgUpa3Ll4Bo-8" value="reserve" style="edgeLabel;html=1;align=center;verticalAlign=middle;resizable=0;points=[];labelBackgroundColor=none;" parent="LYAqf2hi0SgUpa3Ll4Bo-7" vertex="1" connectable="0">
          <mxGeometry x="0.4265" y="-2" relative="1" as="geometry">
            <mxPoint x="-13" y="10" as="offset" />
          </mxGeometry>
        </mxCell>
        <mxCell id="LYAqf2hi0SgUpa3Ll4Bo-9" value="&lt;b&gt;1&lt;/b&gt;" style="edgeLabel;html=1;align=center;verticalAlign=middle;resizable=0;points=[];" parent="LYAqf2hi0SgUpa3Ll4Bo-7" vertex="1" connectable="0">
          <mxGeometry x="-0.4229" y="-2" relative="1" as="geometry">
            <mxPoint x="-8" y="20" as="offset" />
          </mxGeometry>
        </mxCell>
        <mxCell id="LYAqf2hi0SgUpa3Ll4Bo-10" value="&lt;b&gt;0..&lt;font style=&quot;font-size: 11px;&quot;&gt;1&lt;/font&gt;&lt;/b&gt;" style="edgeLabel;html=1;align=center;verticalAlign=middle;resizable=0;points=[];" parent="LYAqf2hi0SgUpa3Ll4Bo-7" vertex="1" connectable="0">
          <mxGeometry x="0.5838" y="-3" relative="1" as="geometry">
            <mxPoint x="-17" y="-13" as="offset" />
          </mxGeometry>
        </mxCell>
        <mxCell id="hK9TueUT5ADjn1TZDLv3-1" value="Admin" style="swimlane;fontStyle=1;align=center;verticalAlign=top;childLayout=stackLayout;horizontal=1;startSize=26;horizontalStack=0;resizeParent=1;resizeParentMax=0;resizeLast=0;collapsible=1;marginBottom=0;strokeWidth=1;spacingTop=0;fontSize=12;strokeColor=#6c8ebf;fillColor=#dae8fc;" parent="1" vertex="1">
          <mxGeometry x="522" y="237" width="125" height="112" as="geometry" />
        </mxCell>
        <mxCell id="hK9TueUT5ADjn1TZDLv3-2" value="- username : String&#xa;- password : String&#xa;" style="text;strokeColor=#6C8EBF;fillColor=none;align=left;verticalAlign=top;spacingLeft=4;spacingRight=4;overflow=hidden;rotatable=0;points=[[0,0.5],[1,0.5]];portConstraint=eastwest;strokeWidth=1;spacingTop=0;fontSize=12;" parent="hK9TueUT5ADjn1TZDLv3-1" vertex="1">
          <mxGeometry y="26" width="125" height="35" as="geometry" />
        </mxCell>
        <mxCell id="hK9TueUT5ADjn1TZDLv3-3" value="+ addUser() : void&#xa;+ updateUser() : void&#xa;+ deactivateUser() : &#xa;&#xa;  void&#xa;&#xa;" style="text;strokeColor=#6C8EBF;fillColor=none;align=left;verticalAlign=top;spacingLeft=4;spacingRight=4;overflow=hidden;rotatable=0;points=[[0,0.5],[1,0.5]];portConstraint=eastwest;strokeWidth=1;spacingTop=0;fontSize=12;" parent="hK9TueUT5ADjn1TZDLv3-1" vertex="1">
          <mxGeometry y="61" width="125" height="51" as="geometry" />
        </mxCell>
        <mxCell id="hK9TueUT5ADjn1TZDLv3-4" value="" style="endArrow=none;html=1;rounded=0;strokeWidth=1;fillColor=#dae8fc;strokeColor=#6c8ebf;exitX=-0.012;exitY=0.712;exitDx=0;exitDy=0;exitPerimeter=0;entryX=0.5;entryY=0;entryDx=0;entryDy=0;" parent="1" edge="1">
          <mxGeometry width="50" height="50" relative="1" as="geometry">
            <mxPoint x="655.0799999999999" y="216.99199999999996" as="sourcePoint" />
            <mxPoint x="586.29" y="237" as="targetPoint" />
            <Array as="points">
              <mxPoint x="586" y="217" />
            </Array>
          </mxGeometry>
        </mxCell>
        <mxCell id="hK9TueUT5ADjn1TZDLv3-5" value="manage" style="edgeLabel;html=1;align=center;verticalAlign=middle;resizable=0;points=[];" parent="hK9TueUT5ADjn1TZDLv3-4" vertex="1" connectable="0">
          <mxGeometry x="0.4265" y="-2" relative="1" as="geometry">
            <mxPoint x="16" y="-7" as="offset" />
          </mxGeometry>
        </mxCell>
        <mxCell id="hK9TueUT5ADjn1TZDLv3-6" value="&lt;b&gt;0..*&lt;/b&gt;" style="edgeLabel;html=1;align=center;verticalAlign=middle;resizable=0;points=[];fontSize=11;" parent="1" vertex="1" connectable="0">
          <mxGeometry x="645.0022023325934" y="209.00454114588598" as="geometry" />
        </mxCell>
        <mxCell id="hK9TueUT5ADjn1TZDLv3-9" value="&lt;b&gt;1&lt;/b&gt;" style="edgeLabel;html=1;align=center;verticalAlign=middle;resizable=0;points=[];fontSize=11;" parent="1" vertex="1" connectable="0">
          <mxGeometry x="578.6622023325933" y="228.304541145886" as="geometry">
            <mxPoint x="-1" y="-1" as="offset" />
          </mxGeometry>
        </mxCell>
      </root>
    </mxGraphModel>
  </diagram>
</mxfile>
